<svg id="svg" version="1.1" xmlns="http://www.w3.org/2000/svg" xmlns:xlink="http://www.w3.org/1999/xlink" width="400" height="176.75371223758322" viewBox="0, 0, 400,176.75371223758322"><g id="svgg"><path id="path0" d="M286.078 0.181 C 285.938 0.407,286.134 1.359,286.442 1.944 C 286.570 2.187,286.889 3.023,287.151 3.800 C 287.413 4.578,287.686 5.294,287.758 5.391 C 287.830 5.488,288.110 6.244,288.381 7.070 C 288.651 7.897,288.923 8.612,288.984 8.661 C 289.045 8.710,289.324 9.426,289.604 10.252 C 289.883 11.078,290.171 11.834,290.244 11.931 C 290.317 12.028,290.631 12.863,290.941 13.787 C 291.252 14.711,291.570 15.546,291.649 15.643 C 291.728 15.740,292.010 16.496,292.276 17.322 C 292.542 18.148,292.814 18.864,292.882 18.913 C 293.141 19.099,293.222 19.828,292.974 19.733 C 292.842 19.682,292.450 19.587,292.103 19.522 C 291.756 19.457,291.471 19.347,291.471 19.277 C 291.471 19.207,290.656 18.926,289.660 18.652 C 288.663 18.377,287.768 18.095,287.671 18.024 C 287.574 17.954,286.739 17.677,285.815 17.411 C 284.892 17.144,284.057 16.863,283.959 16.787 C 283.862 16.711,282.987 16.433,282.015 16.170 C 281.043 15.908,280.168 15.629,280.071 15.551 C 279.973 15.473,278.979 15.148,277.861 14.829 C 276.743 14.510,275.789 14.202,275.740 14.146 C 275.649 14.039,274.375 13.646,272.824 13.246 C 272.338 13.120,271.900 12.963,271.852 12.896 C 271.803 12.828,271.008 12.561,270.084 12.301 C 269.160 12.042,268.166 11.712,267.875 11.570 C 267.583 11.427,266.549 11.105,265.577 10.853 C 264.605 10.602,263.770 10.338,263.721 10.267 C 263.672 10.196,263.115 9.997,262.483 9.826 C 261.852 9.654,260.643 9.276,259.797 8.987 C 258.009 8.375,257.122 8.367,257.037 8.964 C 256.976 9.391,257.684 10.720,258.243 11.225 C 258.436 11.401,258.595 11.639,258.595 11.756 C 258.595 11.872,258.794 12.182,259.037 12.445 C 259.280 12.707,259.479 12.965,259.479 13.017 C 259.479 13.070,259.829 13.574,260.257 14.136 C 260.684 14.699,261.126 15.329,261.237 15.537 C 261.348 15.746,261.956 16.601,262.588 17.439 C 263.220 18.277,263.851 19.183,263.990 19.452 C 264.130 19.721,264.311 19.969,264.394 20.002 C 264.478 20.035,264.832 20.499,265.182 21.034 C 266.095 22.429,266.878 23.543,267.231 23.951 C 267.399 24.145,267.650 24.529,267.787 24.804 C 267.925 25.079,268.180 25.380,268.354 25.473 C 268.528 25.566,268.670 25.726,268.670 25.829 C 268.670 25.986,269.859 27.739,270.872 29.076 C 271.958 30.510,272.981 31.968,273.137 32.302 C 273.239 32.521,273.382 32.700,273.456 32.700 C 273.529 32.700,273.841 33.111,274.150 33.612 C 274.459 34.114,274.816 34.629,274.943 34.757 C 275.071 34.884,275.359 35.289,275.584 35.656 C 275.810 36.023,276.175 36.522,276.397 36.764 C 276.619 37.006,276.801 37.289,276.801 37.393 C 276.801 37.498,277.039 37.812,277.331 38.091 C 277.623 38.370,277.861 38.659,277.861 38.731 C 277.861 38.804,278.343 39.525,278.931 40.333 C 279.520 41.142,280.207 42.121,280.458 42.510 C 280.709 42.899,281.026 43.336,281.161 43.482 C 281.296 43.628,281.880 44.423,282.459 45.250 C 283.037 46.076,283.612 46.869,283.735 47.011 C 283.858 47.154,284.183 47.622,284.457 48.051 C 284.730 48.481,285.060 48.939,285.191 49.069 C 285.321 49.199,285.611 49.606,285.835 49.973 C 286.059 50.340,286.337 50.720,286.452 50.817 C 286.567 50.915,286.880 51.352,287.148 51.790 C 287.416 52.227,287.684 52.625,287.742 52.673 C 287.801 52.722,288.087 53.120,288.379 53.557 C 288.670 53.995,289.087 54.551,289.306 54.793 C 289.525 55.035,289.704 55.318,289.704 55.422 C 289.704 55.527,289.943 55.841,290.234 56.120 C 290.526 56.400,290.764 56.705,290.764 56.800 C 290.764 56.894,291.097 57.416,291.503 57.960 C 293.019 59.990,293.169 60.198,293.491 60.716 C 293.673 61.008,293.931 61.365,294.066 61.511 C 294.200 61.657,294.780 62.452,295.353 63.279 C 295.927 64.105,296.501 64.903,296.629 65.052 C 296.758 65.201,297.101 65.679,297.393 66.113 C 297.684 66.547,298.015 67.000,298.127 67.119 C 298.239 67.238,298.509 67.624,298.728 67.978 C 298.946 68.331,299.312 68.822,299.540 69.069 C 299.769 69.315,299.956 69.606,299.956 69.714 C 299.956 69.822,300.135 70.109,300.354 70.351 C 300.572 70.593,300.990 71.149,301.281 71.586 C 301.573 72.024,301.991 72.580,302.209 72.822 C 302.428 73.064,302.607 73.347,302.607 73.452 C 302.607 73.556,302.846 73.870,303.137 74.149 C 303.429 74.429,303.668 74.753,303.668 74.871 C 303.668 74.988,303.906 75.340,304.198 75.652 C 304.490 75.964,304.729 76.271,304.729 76.333 C 304.729 76.396,305.030 76.845,305.397 77.331 C 305.764 77.817,306.247 78.513,306.471 78.878 C 306.695 79.242,306.938 79.540,307.012 79.540 C 307.086 79.540,307.228 79.719,307.328 79.938 C 307.428 80.157,308.043 81.043,308.696 81.908 C 309.348 82.773,310.084 83.801,310.331 84.192 C 310.579 84.584,310.852 84.990,310.939 85.094 C 311.541 85.818,312.859 87.683,312.859 87.811 C 312.859 87.896,313.095 88.198,313.384 88.481 C 313.673 88.765,313.912 89.060,313.915 89.137 C 313.917 89.215,314.315 89.811,314.798 90.463 C 315.281 91.115,315.840 91.887,316.040 92.179 C 316.240 92.470,316.808 93.266,317.303 93.946 C 317.797 94.627,318.285 95.362,318.387 95.581 C 318.489 95.800,318.637 95.979,318.716 95.979 C 318.795 95.979,318.978 96.207,319.122 96.485 C 319.266 96.764,319.545 97.182,319.741 97.413 C 320.309 98.082,322.050 100.582,322.050 100.729 C 322.050 100.802,322.289 101.090,322.581 101.370 C 322.872 101.649,323.111 101.971,323.111 102.084 C 323.111 102.198,323.290 102.485,323.509 102.723 C 323.880 103.128,324.699 104.279,325.783 105.922 C 326.037 106.307,326.324 106.674,326.419 106.736 C 326.910 107.056,326.980 107.581,326.591 108.012 C 326.378 108.248,325.770 108.958,325.239 109.590 C 324.708 110.221,323.953 111.103,323.560 111.549 C 322.712 112.513,322.066 113.261,320.990 114.528 C 320.552 115.043,320.035 115.640,319.841 115.855 C 319.646 116.069,319.090 116.713,318.604 117.285 C 317.297 118.822,316.270 120.017,315.573 120.813 C 315.232 121.202,314.851 121.639,314.726 121.785 C 314.601 121.931,313.872 122.772,313.105 123.653 C 312.338 124.535,311.312 125.722,310.826 126.292 C 310.340 126.861,307.766 129.839,305.106 132.908 C 302.446 135.977,299.901 138.921,299.450 139.449 C 298.999 139.978,298.431 140.629,298.188 140.896 C 297.945 141.163,297.428 141.759,297.039 142.221 C 296.650 142.682,295.517 143.997,294.520 145.142 C 293.523 146.288,292.227 147.804,291.640 148.513 C 291.052 149.221,290.316 150.088,290.005 150.438 C 289.694 150.789,289.183 151.385,288.871 151.764 C 288.558 152.143,288.097 152.691,287.847 152.983 C 285.792 155.374,285.588 156.189,286.519 158.285 C 286.606 158.480,286.803 159.196,286.957 159.876 C 287.112 160.557,287.321 161.432,287.421 161.821 C 287.522 162.209,287.592 162.598,287.578 162.685 C 287.564 162.771,287.625 162.890,287.713 162.950 C 287.802 163.009,288.097 164.012,288.370 165.179 C 288.642 166.346,288.918 167.340,288.983 167.388 C 289.049 167.437,289.322 168.382,289.592 169.488 C 289.862 170.594,290.156 171.628,290.245 171.786 C 290.335 171.943,290.638 173.003,290.918 174.140 C 291.486 176.441,291.720 176.806,292.575 176.724 C 293.101 176.673,293.186 176.576,293.555 175.608 C 293.777 175.024,294.064 174.348,294.193 174.105 C 294.322 173.862,294.653 172.908,294.929 171.984 C 295.206 171.061,295.479 170.265,295.538 170.217 C 295.597 170.168,295.868 169.412,296.142 168.537 C 296.415 167.662,296.702 166.867,296.779 166.770 C 296.856 166.673,297.122 165.888,297.372 165.026 C 297.621 164.164,297.901 163.367,297.994 163.255 C 298.087 163.143,298.419 162.178,298.733 161.111 C 299.046 160.043,299.360 159.129,299.430 159.081 C 299.500 159.032,299.768 158.277,300.026 157.402 C 300.284 156.527,300.580 155.661,300.684 155.477 C 300.788 155.294,301.068 154.499,301.307 153.710 C 301.546 152.921,301.846 152.077,301.974 151.834 C 302.103 151.591,302.345 150.969,302.514 150.451 C 302.683 149.934,302.952 149.464,303.112 149.408 C 303.272 149.351,304.198 148.932,305.170 148.476 C 306.142 148.019,307.236 147.548,307.601 147.428 C 307.965 147.309,308.263 147.150,308.263 147.076 C 308.263 147.001,308.596 146.841,309.004 146.719 C 309.411 146.597,310.266 146.236,310.904 145.917 C 311.542 145.598,312.461 145.191,312.947 145.013 C 313.433 144.834,313.936 144.586,314.065 144.461 C 314.193 144.336,314.511 144.182,314.772 144.119 C 315.032 144.055,315.921 143.688,316.748 143.302 C 317.574 142.916,318.565 142.488,318.950 142.351 C 319.335 142.214,319.693 142.042,319.745 141.969 C 319.798 141.895,320.437 141.606,321.167 141.326 C 321.896 141.046,322.532 140.763,322.581 140.698 C 322.629 140.632,323.343 140.323,324.167 140.010 C 324.991 139.698,325.706 139.384,325.758 139.314 C 325.809 139.243,326.447 138.951,327.176 138.665 C 327.905 138.380,328.543 138.089,328.593 138.020 C 328.644 137.951,329.239 137.693,329.917 137.447 C 330.594 137.201,331.176 136.917,331.210 136.816 C 331.244 136.715,331.364 136.633,331.477 136.632 C 331.740 136.631,334.251 135.611,334.501 135.404 C 334.604 135.319,335.219 135.049,335.868 134.805 C 336.516 134.561,337.232 134.244,337.459 134.101 C 337.685 133.958,338.367 133.663,338.975 133.446 C 339.582 133.228,340.080 132.987,340.080 132.909 C 340.080 132.831,340.259 132.717,340.477 132.654 C 341.077 132.481,342.807 131.788,342.908 131.680 C 342.956 131.628,343.354 131.441,343.791 131.265 C 344.229 131.088,345.144 130.681,345.824 130.360 C 346.505 130.039,347.479 129.630,347.989 129.451 C 348.500 129.272,348.917 129.071,348.917 129.004 C 348.917 128.938,349.216 128.787,349.580 128.670 C 349.945 128.553,350.978 128.109,351.877 127.684 C 352.776 127.259,353.611 126.911,353.733 126.911 C 353.855 126.910,354.207 126.756,354.515 126.568 C 354.823 126.381,355.618 126.011,356.282 125.746 C 356.947 125.482,357.649 125.164,357.844 125.039 C 358.038 124.915,358.674 124.637,359.258 124.422 C 359.841 124.207,360.358 123.978,360.407 123.914 C 360.455 123.850,361.191 123.529,362.042 123.201 C 362.892 122.873,363.588 122.548,363.588 122.479 C 363.588 122.410,363.807 122.299,364.074 122.233 C 364.342 122.166,365.218 121.800,366.022 121.418 C 366.826 121.037,367.534 120.725,367.597 120.725 C 367.659 120.725,368.313 120.438,369.051 120.087 C 372.451 118.471,372.929 118.250,373.031 118.250 C 373.091 118.250,373.795 117.944,374.595 117.569 C 375.395 117.194,376.427 116.750,376.889 116.582 C 377.351 116.414,377.729 116.204,377.729 116.114 C 377.729 116.025,377.845 115.952,377.987 115.952 C 378.295 115.952,378.494 115.261,378.879 112.859 C 379.035 111.887,379.231 110.922,379.316 110.714 C 379.401 110.506,379.678 109.035,379.932 107.444 C 380.185 105.853,380.456 104.432,380.534 104.286 C 380.611 104.141,380.944 102.351,381.273 100.309 C 381.602 98.268,381.921 96.558,381.982 96.509 C 382.044 96.460,382.343 94.949,382.648 93.151 C 383.687 87.035,384.357 83.458,384.490 83.326 C 384.563 83.253,384.622 82.968,384.622 82.693 L 384.622 82.192 390.676 82.173 C 394.006 82.163,397.446 82.103,398.321 82.040 L 399.912 81.927 399.965 81.294 C 400.018 80.662,398.302 78.717,395.457 76.182 C 395.075 75.842,394.092 74.958,393.272 74.219 C 392.452 73.479,391.304 72.461,390.720 71.957 C 390.137 71.452,389.421 70.820,389.129 70.551 C 386.541 68.166,386.695 68.193,383.725 69.598 C 382.696 70.085,381.682 70.538,381.471 70.605 C 381.260 70.672,381.087 70.795,381.087 70.879 C 381.087 70.963,380.908 71.088,380.689 71.155 C 380.471 71.223,379.616 71.597,378.789 71.987 C 377.963 72.376,376.930 72.848,376.495 73.036 C 376.059 73.223,375.662 73.436,375.611 73.509 C 375.561 73.581,374.982 73.867,374.326 74.143 C 373.670 74.419,373.133 74.692,373.132 74.750 C 373.132 74.809,372.754 75.006,372.293 75.189 C 371.831 75.372,370.908 75.794,370.241 76.127 C 368.783 76.854,368.980 77.035,368.347 74.389 C 368.060 73.188,367.749 72.046,367.656 71.852 C 367.562 71.657,367.279 70.585,367.027 69.469 C 366.775 68.352,366.507 67.358,366.433 67.259 C 366.358 67.160,366.069 66.045,365.791 64.781 C 365.513 63.517,365.236 62.444,365.176 62.395 C 365.116 62.346,364.844 61.273,364.571 60.009 C 364.298 58.745,364.014 57.631,363.940 57.534 C 363.866 57.437,363.548 56.204,363.235 54.795 C 362.921 53.385,362.608 52.152,362.539 52.055 C 362.469 51.958,362.185 50.844,361.907 49.580 C 361.629 48.316,361.351 47.243,361.290 47.194 C 361.228 47.145,360.953 46.072,360.678 44.808 C 360.403 43.544,360.110 42.391,360.029 42.245 C 359.947 42.099,359.632 40.872,359.330 39.518 C 359.027 38.164,358.711 36.931,358.628 36.778 C 358.545 36.625,358.262 35.546,358.000 34.379 C 357.738 33.213,357.465 32.179,357.395 32.081 C 357.324 31.984,357.209 31.640,357.140 31.317 C 357.039 30.844,356.870 30.666,356.280 30.413 C 355.876 30.239,354.949 29.817,354.220 29.474 C 353.491 29.131,352.696 28.793,352.452 28.722 C 352.209 28.651,351.891 28.492,351.745 28.369 C 351.600 28.247,351.281 28.086,351.038 28.013 C 350.795 27.940,349.856 27.533,348.951 27.108 C 348.046 26.684,347.250 26.337,347.183 26.337 C 347.116 26.337,346.584 26.103,346.001 25.816 C 344.401 25.031,341.491 23.759,340.742 23.518 C 340.378 23.400,340.080 23.236,340.080 23.153 C 340.080 23.070,339.901 22.951,339.682 22.888 C 339.029 22.700,337.347 22.018,337.251 21.902 C 337.203 21.843,336.609 21.574,335.932 21.305 C 335.255 21.036,334.539 20.716,334.341 20.593 C 334.143 20.471,333.385 20.145,332.656 19.869 C 331.927 19.592,331.290 19.316,331.242 19.255 C 331.193 19.193,330.597 18.922,329.916 18.653 C 329.236 18.383,328.639 18.110,328.590 18.046 C 328.542 17.982,327.905 17.696,327.176 17.411 C 326.447 17.125,325.808 16.832,325.756 16.759 C 325.703 16.687,325.123 16.425,324.465 16.178 C 323.808 15.930,322.697 15.456,321.997 15.125 C 321.297 14.793,320.506 14.467,320.239 14.400 C 319.971 14.334,319.753 14.223,319.753 14.154 C 319.753 14.020,317.451 13.080,317.123 13.080 C 317.014 13.080,316.924 13.010,316.924 12.925 C 316.924 12.839,316.427 12.589,315.820 12.368 C 315.212 12.147,314.476 11.829,314.185 11.661 C 313.893 11.494,313.098 11.139,312.417 10.873 C 311.737 10.607,311.100 10.327,311.003 10.252 C 310.750 10.056,308.541 9.191,308.294 9.191 C 308.180 9.191,308.087 9.119,308.087 9.030 C 308.087 8.941,307.510 8.652,306.805 8.386 C 306.100 8.121,305.441 7.840,305.341 7.762 C 305.240 7.684,304.524 7.367,303.750 7.058 C 302.976 6.749,302.302 6.444,302.254 6.380 C 302.138 6.227,299.745 5.303,299.465 5.303 C 299.346 5.303,299.249 5.230,299.249 5.141 C 299.249 5.053,298.672 4.761,297.967 4.494 C 297.262 4.226,296.527 3.907,296.332 3.783 C 296.138 3.660,295.541 3.390,295.007 3.182 C 294.472 2.975,293.607 2.604,293.084 2.359 C 292.562 2.114,291.813 1.800,291.420 1.661 C 291.028 1.523,290.619 1.337,290.513 1.249 C 289.703 0.576,286.335 -0.235,286.078 0.181 M291.118 3.095 C 292.625 3.745,294.216 4.439,294.653 4.638 C 295.091 4.836,296.721 5.553,298.277 6.231 C 299.832 6.909,301.821 7.781,302.696 8.168 C 303.570 8.555,304.803 9.094,305.435 9.366 C 306.493 9.821,307.584 10.306,309.412 11.136 C 309.801 11.312,311.114 11.890,312.329 12.420 C 314.531 13.381,314.961 13.571,317.808 14.845 C 318.635 15.215,319.947 15.796,320.725 16.136 C 323.424 17.317,328.333 19.481,329.828 20.149 C 330.654 20.518,331.966 21.098,332.744 21.437 C 336.018 22.867,337.244 23.405,338.665 24.039 C 339.492 24.407,340.804 24.986,341.582 25.326 C 344.086 26.419,345.760 27.155,348.829 28.512 C 350.482 29.242,352.709 30.212,353.778 30.666 C 356.111 31.658,355.906 31.465,355.491 32.285 C 355.302 32.659,354.945 33.522,354.697 34.202 C 353.977 36.178,352.644 39.638,352.575 39.707 C 352.540 39.741,351.803 39.539,350.936 39.257 C 350.069 38.975,348.047 38.332,346.443 37.827 C 344.839 37.322,342.970 36.722,342.289 36.492 C 341.608 36.263,338.785 35.346,336.014 34.454 C 333.243 33.562,329.704 32.414,328.148 31.902 C 326.593 31.391,322.218 29.960,318.427 28.722 C 314.635 27.485,310.261 26.053,308.705 25.542 C 302.701 23.566,297.690 21.949,296.373 21.561 C 295.183 21.211,294.987 21.096,294.899 20.698 C 294.637 19.502,293.720 16.920,291.817 12.019 C 291.420 10.999,290.828 9.448,290.500 8.573 C 289.768 6.620,288.202 2.510,288.013 2.046 C 287.909 1.790,287.937 1.732,288.127 1.810 C 288.265 1.867,289.611 2.446,291.118 3.095 M297.393 22.810 C 297.879 22.991,301.140 24.063,304.640 25.193 C 308.140 26.323,311.679 27.476,312.506 27.756 C 313.332 28.036,317.707 29.468,322.227 30.938 C 326.748 32.407,332.833 34.390,335.749 35.343 C 340.843 37.008,348.487 39.475,351.171 40.320 C 352.669 40.792,352.612 40.601,351.842 42.553 C 351.507 43.404,350.469 46.169,349.537 48.696 C 348.604 51.224,347.758 53.491,347.656 53.734 C 347.553 53.977,346.965 55.568,346.348 57.269 C 345.731 58.970,344.898 61.237,344.498 62.307 C 344.097 63.376,343.543 64.887,343.265 65.665 C 342.988 66.443,342.390 68.073,341.936 69.289 C 341.482 70.504,340.925 72.015,340.698 72.647 C 340.471 73.279,339.596 75.665,338.754 77.950 C 337.911 80.234,336.996 82.740,336.721 83.517 C 336.446 84.295,335.850 85.926,335.396 87.141 C 334.942 88.356,334.384 89.867,334.157 90.499 C 333.929 91.131,333.293 92.881,332.743 94.388 C 331.701 97.246,330.495 100.593,329.209 104.198 C 328.792 105.365,328.399 106.319,328.336 106.319 C 328.273 106.319,327.429 104.211,326.462 101.635 C 325.495 99.059,324.586 96.673,324.444 96.332 C 324.301 95.992,323.777 94.640,323.278 93.327 C 322.780 92.015,322.187 90.464,321.959 89.881 C 321.732 89.297,320.861 87.030,320.024 84.843 C 319.187 82.656,318.311 80.389,318.077 79.806 C 317.843 79.222,316.965 76.955,316.126 74.768 C 315.287 72.581,314.414 70.314,314.187 69.730 C 313.960 69.147,313.362 67.596,312.859 66.284 C 312.356 64.971,311.758 63.420,311.531 62.837 C 310.940 61.318,307.158 51.513,304.884 45.603 C 303.818 42.833,302.754 40.088,302.520 39.505 C 302.131 38.535,301.675 37.353,299.827 32.523 C 299.474 31.600,298.443 28.956,297.537 26.648 C 295.711 21.994,295.771 22.185,296.200 22.358 C 296.370 22.426,296.907 22.630,297.393 22.810 M358.041 40.300 C 358.865 43.460,360.177 48.551,360.956 51.613 C 361.736 54.675,362.771 58.732,363.258 60.627 C 363.744 62.523,364.690 66.222,365.359 68.847 C 366.028 71.471,366.986 75.130,367.487 76.977 C 367.989 78.825,368.624 81.211,368.898 82.280 C 369.172 83.350,369.753 85.616,370.189 87.318 C 373.580 100.544,376.752 113.150,376.917 114.052 C 377.082 114.958,377.904 115.010,368.007 113.487 C 365.431 113.091,361.732 112.528,359.788 112.236 C 357.844 111.944,355.616 111.592,354.839 111.454 C 354.061 111.315,352.788 111.113,352.011 111.005 C 351.233 110.897,348.886 110.535,346.796 110.200 C 340.973 109.269,337.495 108.730,333.643 108.162 C 329.850 107.602,328.767 107.370,328.767 107.115 C 328.767 107.025,329.035 106.213,329.363 105.310 C 329.690 104.407,330.485 102.216,331.130 100.442 C 331.775 98.668,332.815 95.804,333.441 94.079 C 334.067 92.353,335.267 89.072,336.107 86.787 C 336.948 84.503,337.860 81.997,338.135 81.220 C 338.410 80.442,339.005 78.811,339.457 77.596 C 340.923 73.652,341.511 72.054,342.022 70.614 C 342.298 69.837,342.852 68.325,343.253 67.256 C 343.653 66.186,344.487 63.920,345.107 62.218 C 345.726 60.517,346.355 58.807,346.505 58.418 C 346.853 57.514,349.321 50.861,350.504 47.636 C 351.639 44.543,352.162 43.169,353.763 39.063 C 354.464 37.265,355.265 35.201,355.542 34.476 L 356.047 33.160 356.295 33.858 C 356.431 34.242,357.217 37.141,358.041 40.300 M163.588 39.947 C 163.528 40.044,163.103 40.124,162.643 40.124 C 156.063 40.124,151.673 48.650,155.084 54.802 C 156.195 56.805,158.793 59.031,160.028 59.038 C 160.139 59.038,160.468 59.176,160.760 59.343 C 161.195 59.592,161.753 59.647,163.853 59.647 C 165.954 59.647,166.512 59.592,166.947 59.343 C 167.238 59.176,167.579 59.038,167.705 59.038 C 168.766 59.033,171.782 56.411,172.443 54.920 C 172.625 54.511,172.868 54.076,172.985 53.955 C 173.595 53.317,173.859 49.063,173.403 47.194 C 172.519 43.561,168.473 40.124,165.082 40.124 C 164.612 40.124,164.179 40.044,164.118 39.947 C 164.058 39.850,163.939 39.770,163.853 39.770 C 163.768 39.770,163.648 39.850,163.588 39.947 M214.582 39.947 C 214.582 40.052,213.917 40.125,212.947 40.127 C 210.378 40.133,205.764 40.856,205.126 41.354 C 205.029 41.430,204.631 41.592,204.242 41.714 C 203.388 41.982,200.872 43.323,200.183 43.877 C 199.214 44.657,196.714 47.212,196.542 47.598 C 196.446 47.813,196.175 48.253,195.941 48.574 C 195.706 48.896,195.374 49.532,195.203 49.988 C 195.032 50.444,194.826 50.864,194.744 50.920 C 194.663 50.977,194.392 51.892,194.143 52.953 C 193.894 54.014,193.620 55.019,193.534 55.185 C 193.263 55.709,192.838 59.724,192.743 62.660 C 192.692 64.216,192.608 65.985,192.555 66.593 L 192.460 67.698 189.027 67.698 L 185.594 67.698 185.594 70.879 L 185.594 74.061 189.041 74.061 L 192.488 74.061 192.488 94.660 C 192.488 115.175,192.486 115.265,192.112 116.446 C 191.389 118.727,190.767 119.283,188.491 119.684 C 187.821 119.802,187.198 119.965,187.106 120.046 C 187.013 120.128,186.635 120.194,186.266 120.194 L 185.594 120.194 185.594 122.227 L 185.594 124.260 202.916 124.260 L 220.239 124.260 220.239 122.227 L 220.239 120.194 218.481 120.194 C 217.515 120.194,216.682 120.126,216.631 120.043 C 216.580 119.960,216.060 119.843,215.476 119.781 C 213.038 119.527,211.710 118.678,211.146 117.013 C 210.568 115.305,210.524 113.691,210.521 93.902 L 210.517 74.061 215.731 74.061 L 220.946 74.061 220.946 70.879 L 220.946 67.698 215.731 67.698 L 210.517 67.698 210.517 59.580 C 210.517 48.317,210.859 46.595,213.324 45.457 C 213.676 45.294,214.013 45.094,214.072 45.013 C 214.509 44.416,217.803 45.063,218.480 45.879 C 218.773 46.232,218.580 47.272,218.076 48.058 C 217.851 48.409,217.471 49.134,217.231 49.669 C 216.992 50.203,216.744 50.681,216.681 50.729 C 216.038 51.224,216.037 55.883,216.679 56.385 C 216.741 56.434,216.951 56.787,217.145 57.171 C 219.413 61.643,228.692 61.620,230.676 57.137 C 230.816 56.821,230.988 56.562,231.059 56.562 C 231.968 56.562,232.028 49.156,231.126 48.196 C 231.020 48.082,230.715 47.552,230.449 47.017 C 230.002 46.117,229.204 45.174,227.869 43.968 C 227.574 43.701,227.292 43.482,227.244 43.482 C 227.196 43.482,226.694 43.179,226.128 42.808 C 225.562 42.438,224.702 41.987,224.216 41.808 C 223.730 41.628,223.166 41.374,222.963 41.243 C 222.316 40.825,219.510 40.293,217.366 40.180 C 216.224 40.121,215.289 40.004,215.289 39.921 C 215.289 39.838,215.130 39.770,214.936 39.770 C 214.741 39.770,214.582 39.850,214.582 39.947 M37.842 41.489 C 37.531 42.245,37.027 43.540,36.722 44.366 C 36.416 45.192,36.116 45.908,36.053 45.957 C 35.991 46.005,35.718 46.681,35.446 47.459 C 35.175 48.237,34.891 48.953,34.814 49.050 C 34.737 49.147,34.466 49.783,34.210 50.464 C 33.955 51.144,33.597 52.019,33.414 52.408 C 33.232 52.797,32.898 53.672,32.673 54.353 C 32.448 55.033,32.204 55.634,32.130 55.688 C 32.056 55.742,31.789 56.378,31.536 57.102 C 31.284 57.826,31.004 58.507,30.914 58.616 C 30.824 58.725,30.554 59.392,30.314 60.097 C 30.074 60.803,29.805 61.469,29.717 61.578 C 29.628 61.687,29.334 62.413,29.063 63.190 C 28.791 63.968,28.465 64.769,28.337 64.971 C 28.209 65.173,27.907 65.919,27.665 66.629 C 27.424 67.339,27.155 68.009,27.069 68.118 C 26.982 68.227,26.690 68.953,26.418 69.730 C 26.147 70.508,25.874 71.184,25.812 71.233 C 25.749 71.281,25.515 71.838,25.290 72.470 C 25.065 73.102,24.688 74.047,24.452 74.571 C 24.215 75.094,23.855 76.009,23.651 76.603 C 23.447 77.198,23.224 77.724,23.155 77.773 C 23.087 77.821,22.809 78.517,22.538 79.319 C 22.267 80.122,21.986 80.778,21.914 80.778 C 21.841 80.778,21.743 80.957,21.695 81.175 C 21.551 81.825,20.782 83.863,20.640 83.968 C 20.568 84.022,20.262 84.777,19.961 85.646 C 19.660 86.516,19.358 87.267,19.291 87.317 C 19.223 87.366,18.938 88.082,18.656 88.909 C 18.375 89.735,18.088 90.451,18.019 90.499 C 17.950 90.548,17.670 91.224,17.397 92.002 C 17.125 92.779,16.850 93.456,16.787 93.504 C 16.725 93.553,16.449 94.229,16.176 95.007 C 15.903 95.784,15.582 96.580,15.463 96.774 C 15.344 96.969,15.022 97.764,14.748 98.542 C 14.473 99.319,14.198 99.996,14.135 100.044 C 14.073 100.093,13.800 100.769,13.529 101.547 C 13.257 102.324,12.970 103.043,12.891 103.144 C 12.811 103.244,12.534 103.920,12.274 104.646 C 12.014 105.372,11.733 106.051,11.649 106.156 C 11.565 106.261,11.264 106.977,10.980 107.747 C 10.696 108.517,10.178 109.783,9.830 110.561 C 9.481 111.339,9.195 112.075,9.193 112.196 C 9.192 112.318,9.120 112.417,9.034 112.417 C 8.947 112.417,8.743 112.755,8.580 113.168 C 7.167 116.754,3.590 119.841,0.849 119.841 C 0.136 119.841,0.000 120.237,0.000 122.303 L 0.000 124.260 12.638 124.260 L 25.276 124.260 25.276 122.227 L 25.276 120.194 24.756 120.194 C 24.470 120.194,24.187 120.115,24.127 120.018 C 24.067 119.920,23.433 119.841,22.718 119.841 C 20.721 119.841,17.322 119.067,17.322 118.613 C 17.322 118.542,17.127 118.394,16.887 118.286 C 16.432 118.078,15.731 116.904,15.731 116.348 C 15.731 116.169,15.637 115.929,15.523 115.814 C 15.367 115.658,15.364 115.505,15.512 115.205 C 15.622 114.984,15.762 114.525,15.826 114.185 C 16.009 113.198,16.673 110.923,16.806 110.826 C 16.873 110.778,17.140 110.065,17.399 109.243 C 17.658 108.421,17.935 107.665,18.014 107.564 C 18.094 107.463,18.380 106.703,18.652 105.877 C 18.923 105.051,19.241 104.216,19.359 104.021 C 19.476 103.827,19.802 102.933,20.083 102.036 L 20.592 100.404 33.741 100.445 L 46.890 100.486 47.253 101.458 C 47.453 101.993,47.675 102.471,47.745 102.521 C 47.868 102.607,48.267 103.615,48.615 104.716 C 48.705 105.001,48.846 105.279,48.929 105.334 C 49.012 105.390,49.344 106.191,49.665 107.114 C 49.987 108.038,50.310 108.873,50.384 108.970 C 50.457 109.068,50.727 109.863,50.984 110.738 C 51.240 111.613,51.537 112.484,51.644 112.674 C 51.984 113.280,52.302 115.972,52.135 116.836 C 52.051 117.274,51.978 117.677,51.974 117.732 C 51.886 118.877,49.844 119.649,46.526 119.791 C 45.235 119.846,44.137 119.960,44.085 120.043 C 44.034 120.126,43.718 120.194,43.383 120.194 L 42.775 120.194 42.775 122.227 L 42.775 124.260 62.837 124.260 L 82.899 124.260 82.899 122.266 L 82.899 120.272 82.148 120.068 C 81.734 119.957,81.065 119.820,80.661 119.765 C 79.857 119.656,78.382 119.075,77.954 118.699 C 76.330 117.271,74.770 115.118,73.984 113.219 C 73.824 112.833,73.629 112.475,73.551 112.423 C 73.472 112.371,73.187 111.772,72.917 111.091 C 72.647 110.411,72.372 109.814,72.306 109.766 C 72.240 109.717,71.921 109.001,71.597 108.175 C 71.274 107.349,70.947 106.593,70.871 106.496 C 70.795 106.399,70.526 105.769,70.272 105.096 C 70.019 104.423,69.745 103.787,69.664 103.682 C 69.583 103.577,69.293 102.894,69.020 102.165 C 68.747 101.436,68.473 100.800,68.410 100.751 C 68.348 100.703,68.114 100.146,67.891 99.514 C 67.667 98.882,67.371 98.185,67.233 97.966 C 67.094 97.747,66.740 96.914,66.446 96.117 C 66.152 95.319,65.847 94.584,65.768 94.483 C 65.688 94.382,65.455 93.841,65.248 93.280 C 65.041 92.718,64.672 91.866,64.429 91.385 C 64.185 90.904,63.986 90.424,63.986 90.319 C 63.986 90.213,63.762 89.673,63.488 89.120 C 63.214 88.566,62.766 87.497,62.492 86.743 C 62.218 85.990,61.925 85.373,61.841 85.373 C 61.757 85.373,61.688 85.257,61.688 85.114 C 61.688 84.847,61.419 84.167,60.707 82.634 C 60.482 82.148,60.122 81.273,59.909 80.689 C 59.695 80.106,59.455 79.546,59.376 79.445 C 59.297 79.344,58.985 78.592,58.683 77.773 C 58.381 76.954,58.066 76.202,57.982 76.101 C 57.898 76.000,57.622 75.366,57.369 74.694 C 57.116 74.021,56.843 73.384,56.762 73.280 C 56.681 73.175,56.394 72.472,56.123 71.719 C 55.852 70.966,55.575 70.349,55.506 70.349 C 55.437 70.349,55.280 70.011,55.157 69.598 C 55.034 69.185,54.706 68.359,54.429 67.763 C 54.151 67.167,53.720 66.139,53.472 65.479 C 53.223 64.819,52.955 64.193,52.875 64.088 C 52.795 63.983,52.513 63.302,52.248 62.575 C 51.984 61.848,51.707 61.212,51.634 61.161 C 51.560 61.111,51.282 60.474,51.015 59.747 C 50.748 59.020,50.474 58.384,50.407 58.333 C 50.340 58.283,50.136 57.804,49.954 57.269 C 49.772 56.734,49.406 55.820,49.141 55.236 C 48.267 53.311,48.078 52.841,48.078 52.592 C 48.078 52.456,47.974 52.240,47.848 52.112 C 47.721 51.983,47.398 51.283,47.129 50.556 C 46.861 49.829,46.586 49.192,46.518 49.142 C 46.451 49.091,46.246 48.612,46.063 48.078 C 45.880 47.543,45.475 46.549,45.162 45.868 C 44.849 45.188,44.450 44.233,44.275 43.747 C 44.100 43.261,43.904 42.824,43.839 42.775 C 43.775 42.726,43.519 42.130,43.270 41.449 L 42.818 40.212 40.612 40.163 L 38.407 40.114 37.842 41.489 M166.770 41.356 C 173.091 43.538,174.854 52.082,169.904 56.554 C 164.969 61.013,156.594 58.592,155.104 52.274 C 153.413 45.101,159.935 38.997,166.770 41.356 M217.499 41.010 C 226.439 42.004,232.127 47.589,230.853 54.121 C 230.130 57.831,227.577 59.698,223.458 59.527 C 219.390 59.359,217.145 57.237,217.145 53.561 L 217.145 51.878 218.363 49.544 C 220.078 46.253,220.009 45.338,217.972 44.405 C 215.946 43.478,212.915 44.019,211.572 45.548 C 209.728 47.649,209.552 48.872,209.548 59.655 L 209.545 68.493 214.759 68.582 L 219.973 68.670 220.025 70.526 C 220.053 71.547,220.032 72.561,219.977 72.779 L 219.878 73.177 214.659 73.177 L 209.440 73.177 209.506 93.902 C 209.576 115.858,209.574 115.790,210.392 117.748 C 211.245 119.789,213.440 120.797,217.538 121.029 L 219.370 121.132 219.318 122.210 L 219.266 123.288 203.016 123.333 C 190.132 123.369,186.736 123.332,186.624 123.156 C 186.547 123.034,186.482 122.555,186.481 122.091 C 186.478 121.100,186.420 121.134,189.041 120.544 C 191.170 120.064,192.128 119.290,192.860 117.455 L 193.283 116.394 193.331 94.786 L 193.378 73.177 190.020 73.177 C 186.079 73.177,186.434 73.445,186.515 70.526 L 186.567 68.670 189.969 68.622 C 191.840 68.595,193.375 68.516,193.378 68.445 C 193.382 68.374,193.457 66.567,193.544 64.428 C 193.961 54.248,195.516 49.455,199.631 45.663 C 203.508 42.091,210.601 40.244,217.499 41.010 M42.760 42.687 C 43.132 43.562,44.093 45.829,44.895 47.724 C 45.698 49.620,46.812 52.245,47.372 53.557 C 47.932 54.870,48.805 56.938,49.312 58.153 C 49.820 59.368,50.494 60.959,50.811 61.688 C 51.128 62.417,51.721 63.809,52.128 64.781 C 52.536 65.753,53.061 66.986,53.295 67.521 C 53.742 68.541,54.064 69.300,57.270 76.889 C 58.358 79.465,59.472 82.090,59.744 82.722 C 60.016 83.354,60.892 85.422,61.690 87.318 C 62.489 89.213,63.364 91.281,63.635 91.913 C 63.906 92.545,64.782 94.613,65.581 96.509 C 74.625 117.954,75.770 119.801,80.638 120.794 L 81.750 121.021 81.750 122.154 L 81.750 123.288 62.708 123.333 L 43.666 123.378 43.562 122.965 C 43.505 122.738,43.484 122.201,43.515 121.771 L 43.570 120.990 45.957 120.874 C 53.149 120.524,54.482 118.359,52.068 110.951 C 51.112 108.018,50.593 106.704,48.279 101.370 L 47.588 99.779 33.802 99.734 L 20.015 99.689 19.653 100.618 C 18.578 103.372,17.994 104.900,17.423 106.451 C 17.074 107.398,16.512 108.916,16.175 109.824 C 13.285 117.605,14.889 120.404,22.492 120.844 L 24.392 120.954 24.392 122.166 L 24.392 123.379 12.594 123.333 L 0.795 123.288 0.744 122.137 L 0.693 120.987 2.272 120.506 C 5.997 119.372,8.049 117.097,10.521 111.357 C 11.498 109.089,12.519 106.630,13.016 105.347 C 13.261 104.715,13.570 103.959,13.702 103.668 C 13.834 103.376,14.706 101.228,15.639 98.895 C 16.572 96.562,17.411 94.494,17.505 94.300 C 17.598 94.105,18.262 92.475,18.981 90.676 C 19.700 88.878,20.805 86.133,21.436 84.578 C 22.067 83.023,23.340 79.881,24.265 77.596 C 26.204 72.805,28.441 67.285,30.138 63.102 C 30.790 61.498,31.998 58.515,32.824 56.474 C 33.651 54.432,34.906 51.330,35.615 49.580 C 37.377 45.229,38.800 41.690,38.941 41.310 C 39.043 41.034,39.250 41.000,40.571 41.045 L 42.084 41.096 42.760 42.687 M32.749 66.696 C 32.440 67.490,31.819 69.094,31.369 70.261 C 29.777 74.389,29.318 75.575,28.903 76.624 C 28.083 78.698,26.637 82.437,24.290 88.555 C 23.973 89.381,23.343 91.012,22.889 92.179 C 22.436 93.345,21.955 94.598,21.822 94.962 L 21.580 95.625 33.768 95.625 C 40.472 95.625,45.957 95.599,45.957 95.566 C 45.957 95.534,45.631 94.718,45.233 93.754 C 44.835 92.790,44.247 91.365,43.926 90.588 C 43.137 88.676,37.602 75.387,36.859 73.619 C 35.016 69.238,33.584 65.721,33.584 65.581 C 33.584 64.990,33.229 65.463,32.749 66.696 M129.386 66.406 C 128.669 66.526,127.766 66.825,126.823 67.254 C 126.337 67.475,125.652 67.783,125.301 67.939 C 124.949 68.094,124.562 68.342,124.439 68.490 C 124.317 68.638,124.126 68.758,124.015 68.758 C 123.346 68.758,120.312 71.647,117.501 74.961 L 116.841 75.740 116.838 71.719 L 116.836 67.698 104.817 67.698 L 92.797 67.698 92.797 69.543 C 92.797 71.671,92.667 71.510,94.677 71.861 C 95.533 72.010,96.276 72.202,96.328 72.287 C 96.381 72.372,96.638 72.496,96.899 72.561 C 98.030 72.845,99.160 74.665,99.160 76.204 C 99.160 76.472,99.240 76.741,99.337 76.801 C 99.453 76.872,99.514 83.431,99.514 95.901 C 99.514 108.444,99.454 114.892,99.337 114.892 C 99.240 114.892,99.160 115.116,99.160 115.390 C 99.160 117.618,98.003 118.953,95.537 119.568 C 94.856 119.738,94.141 119.944,93.946 120.027 C 93.752 120.109,93.433 120.201,93.239 120.232 C 92.910 120.284,92.886 120.424,92.886 122.230 L 92.886 124.171 109.456 124.217 L 126.027 124.262 126.027 122.228 L 126.027 120.194 124.535 120.194 C 123.715 120.194,123.001 120.126,122.949 120.042 C 122.898 119.959,122.485 119.840,122.032 119.777 C 119.057 119.370,118.097 118.211,117.503 114.308 C 117.224 112.479,117.230 87.454,117.510 85.904 C 117.771 84.455,118.571 81.838,118.752 81.838 C 118.827 81.838,119.028 81.524,119.197 81.141 C 119.663 80.084,121.040 78.658,122.047 78.190 C 123.999 77.281,125.308 77.837,127.101 80.336 C 128.381 82.119,130.672 83.927,132.244 84.394 C 134.112 84.948,137.637 84.617,138.791 83.777 C 139.054 83.586,139.333 83.429,139.410 83.428 C 140.349 83.422,142.372 79.893,142.651 77.773 C 143.668 70.070,137.753 65.002,129.386 66.406 M135.300 67.438 C 144.583 69.856,143.776 84.131,134.378 83.756 C 131.765 83.652,130.730 82.943,126.823 78.585 C 122.906 74.217,117.429 78.541,116.479 86.751 C 116.214 89.043,116.344 113.881,116.628 115.157 C 117.576 119.416,119.716 121.078,124.252 121.078 L 125.144 121.078 125.144 122.227 L 125.144 123.376 109.493 123.376 L 93.842 123.376 93.894 122.204 L 93.946 121.032 95.625 120.558 C 98.902 119.633,99.721 118.671,100.207 115.174 C 100.470 113.287,100.470 78.317,100.207 76.431 C 99.720 72.924,98.211 71.422,94.697 70.945 L 93.858 70.831 93.858 69.706 L 93.858 68.582 104.905 68.582 L 115.952 68.582 115.958 73.575 L 115.963 78.568 116.329 78.078 C 123.004 69.129,128.963 65.788,135.300 67.438 M34.201 69.730 C 34.478 70.508,34.760 71.184,34.829 71.233 C 34.897 71.281,35.166 71.915,35.427 72.641 C 35.688 73.366,35.978 74.052,36.071 74.165 C 36.164 74.277,36.444 74.956,36.693 75.673 C 36.942 76.391,37.247 77.137,37.371 77.331 C 37.495 77.525,37.821 78.321,38.094 79.099 C 38.367 79.876,38.650 80.552,38.722 80.601 C 38.794 80.650,39.060 81.282,39.313 82.006 C 39.566 82.729,39.833 83.366,39.906 83.419 C 39.979 83.473,40.188 83.955,40.371 84.490 C 40.554 85.024,40.888 85.859,41.113 86.346 C 41.337 86.832,41.730 87.786,41.986 88.467 C 42.242 89.147,42.516 89.783,42.594 89.881 C 42.673 89.978,42.955 90.674,43.221 91.427 C 43.487 92.181,43.761 92.797,43.831 92.797 C 43.900 92.797,44.054 93.124,44.174 93.523 C 44.293 93.922,44.434 94.359,44.486 94.495 C 44.566 94.704,42.950 94.741,33.779 94.741 C 23.096 94.741,22.978 94.738,22.978 94.388 C 22.978 94.194,23.044 94.034,23.125 94.034 C 23.206 94.034,23.460 93.458,23.690 92.753 C 23.919 92.048,24.284 91.074,24.500 90.588 C 24.716 90.102,25.069 89.187,25.285 88.555 C 25.500 87.923,25.740 87.325,25.817 87.226 C 25.895 87.128,26.170 86.412,26.430 85.636 C 26.690 84.859,26.964 84.145,27.040 84.048 C 27.116 83.951,27.440 83.115,27.760 82.192 C 28.081 81.268,28.391 80.473,28.450 80.424 C 28.508 80.376,28.785 79.660,29.064 78.833 C 29.344 78.007,29.633 77.251,29.707 77.154 C 29.781 77.057,30.018 76.460,30.233 75.829 C 30.448 75.197,30.801 74.282,31.017 73.796 C 31.234 73.310,31.593 72.355,31.816 71.675 C 32.040 70.994,32.280 70.398,32.350 70.349 C 32.420 70.300,32.662 69.687,32.887 68.986 C 33.364 67.496,33.415 67.525,34.201 69.730 M148.652 69.623 L 148.652 71.548 149.934 71.835 C 152.816 72.482,154.662 73.947,154.662 75.588 C 154.662 75.806,154.741 76.034,154.839 76.094 C 155.065 76.233,155.084 115.117,154.858 115.557 C 154.771 115.726,154.571 116.313,154.413 116.863 C 154.021 118.220,153.353 118.839,151.767 119.312 C 151.074 119.519,150.091 119.822,149.581 119.985 L 148.655 120.283 148.654 122.271 L 148.652 124.260 163.588 124.260 L 178.524 124.260 178.524 122.227 L 178.524 120.194 177.827 120.194 C 177.444 120.194,177.087 120.124,177.034 120.038 C 176.981 119.952,176.642 119.826,176.282 119.758 C 175.068 119.530,174.021 118.870,173.704 118.131 C 172.956 116.390,172.975 117.025,172.912 91.869 L 172.852 67.698 160.752 67.698 L 148.652 67.698 148.652 69.623 M229.783 69.642 C 229.783 70.711,229.827 71.586,229.879 71.586 C 230.238 71.586,232.716 72.174,232.788 72.275 C 232.837 72.345,233.125 72.502,233.428 72.625 C 235.666 73.529,235.610 73.019,235.614 92.709 C 235.617 108.368,235.729 112.869,236.130 113.379 C 236.211 113.482,236.333 113.873,236.400 114.248 C 236.587 115.281,237.204 117.190,237.352 117.190 C 237.424 117.190,237.640 117.594,237.831 118.087 C 238.023 118.581,238.299 119.118,238.446 119.280 C 238.593 119.443,238.865 119.812,239.051 120.102 C 239.466 120.748,240.918 122.316,241.101 122.316 C 241.175 122.316,241.491 122.554,241.803 122.846 C 242.115 123.137,242.466 123.376,242.584 123.376 C 242.701 123.376,242.951 123.516,243.139 123.688 C 243.540 124.052,244.570 124.508,245.692 124.818 C 246.129 124.939,246.531 125.101,246.586 125.179 C 247.170 126.014,256.273 125.996,258.153 125.156 C 258.347 125.069,259.096 124.813,259.817 124.587 C 260.538 124.361,261.214 124.094,261.319 123.993 C 261.425 123.892,261.965 123.607,262.519 123.359 C 263.073 123.112,263.709 122.776,263.933 122.614 C 264.156 122.452,264.671 122.100,265.077 121.831 C 266.008 121.215,268.230 119.523,268.781 119.009 L 269.200 118.620 269.200 122.235 C 269.200 125.428,269.233 125.851,269.482 125.851 C 269.886 125.851,271.746 125.298,271.852 125.147 C 271.900 125.077,272.139 124.977,272.382 124.926 C 274.964 124.377,276.419 124.032,276.712 123.898 C 277.261 123.648,280.111 123.249,283.606 122.932 C 285.356 122.774,286.947 122.576,287.141 122.492 C 287.335 122.408,288.529 122.253,289.792 122.147 C 291.056 122.040,292.428 121.906,292.841 121.849 L 293.593 121.745 293.593 119.821 L 293.593 117.897 292.741 117.897 C 291.546 117.897,289.875 117.563,289.576 117.264 C 289.438 117.126,289.219 117.013,289.088 117.013 C 288.958 117.013,288.644 116.754,288.391 116.438 C 288.138 116.122,287.849 115.763,287.748 115.641 C 286.966 114.688,286.980 115.107,286.920 90.720 L 286.865 67.698 274.232 67.698 L 261.600 67.698 261.600 69.642 C 261.600 70.711,261.635 71.586,261.679 71.586 C 262.209 71.586,265.943 72.164,266.013 72.257 C 266.065 72.326,266.398 72.516,266.753 72.680 C 267.694 73.115,268.601 74.564,268.835 76.008 C 268.956 76.754,269.021 83.213,269.022 94.507 L 269.023 111.861 268.095 112.760 C 266.824 113.992,265.205 115.210,264.251 115.652 C 263.814 115.855,263.416 116.072,263.367 116.134 C 262.574 117.153,257.588 117.016,255.943 115.931 C 253.567 114.363,253.646 115.265,253.646 89.583 L 253.646 67.698 241.715 67.698 L 229.783 67.698 229.783 69.642 M172.029 92.576 C 172.084 118.425,172.034 116.998,172.942 118.753 C 173.460 119.754,175.015 120.608,176.986 120.973 L 177.657 121.097 177.604 122.192 L 177.552 123.288 163.536 123.333 L 149.520 123.378 149.572 122.199 L 149.624 121.020 151.533 120.386 C 156.173 118.846,155.919 120.319,155.859 95.317 L 155.811 75.563 155.400 74.467 C 154.758 72.756,152.690 71.339,150.271 70.952 L 149.536 70.834 149.536 69.708 L 149.536 68.582 160.756 68.582 L 171.977 68.582 172.029 92.576 M252.764 90.764 C 252.828 106.130,252.915 113.021,253.049 113.391 C 254.152 116.418,255.701 117.536,258.994 117.682 C 262.791 117.849,265.196 116.819,268.682 113.530 L 269.907 112.374 269.904 94.499 C 269.901 74.667,269.922 75.073,268.775 73.280 C 267.880 71.881,266.020 71.068,263.190 70.841 L 262.572 70.791 262.519 69.686 L 262.467 68.582 274.229 68.582 L 285.992 68.582 285.993 90.544 C 285.994 104.597,286.060 112.919,286.175 113.654 C 286.666 116.784,288.423 118.431,291.586 118.727 L 292.709 118.831 292.709 119.863 C 292.709 121.079,293.017 120.945,289.350 121.325 C 279.891 122.305,275.484 123.025,271.852 124.185 C 271.122 124.418,270.426 124.610,270.305 124.611 C 270.135 124.613,270.084 123.716,270.084 120.710 C 270.084 118.399,270.017 116.831,269.921 116.866 C 269.831 116.898,268.988 117.561,268.047 118.338 C 262.211 123.163,257.956 124.967,252.408 124.967 C 242.988 124.967,237.364 119.632,236.666 110.036 C 236.581 108.866,236.507 100.672,236.503 91.825 C 236.493 71.469,236.704 72.460,232.081 71.126 L 230.756 70.744 230.701 69.906 C 230.671 69.445,230.688 68.958,230.740 68.824 C 230.819 68.618,232.584 68.586,241.754 68.624 L 252.673 68.670 252.764 90.764 M385.223 72.072 C 384.627 74.755,383.739 79.864,383.739 80.610 C 383.738 80.955,383.656 81.319,383.556 81.420 C 383.381 81.595,382.997 83.475,381.701 90.499 C 381.369 92.298,380.772 95.519,380.373 97.658 C 379.377 103.001,378.503 107.833,378.047 110.520 C 377.617 113.049,377.543 113.094,377.116 111.091 C 376.404 107.745,371.292 87.623,369.266 80.195 C 368.790 78.449,368.771 78.271,369.039 78.112 C 369.201 78.017,371.401 76.960,373.928 75.764 C 376.456 74.568,380.035 72.825,381.882 71.891 C 386.039 69.787,385.735 69.771,385.223 72.072 M388.953 72.304 C 389.342 72.660,390.972 74.129,392.576 75.570 C 396.783 79.346,398.102 80.613,397.968 80.748 C 397.801 80.915,385.035 80.896,384.868 80.729 C 384.792 80.653,384.861 79.818,385.020 78.873 C 385.775 74.398,386.400 71.107,386.567 70.730 L 386.751 70.315 387.498 70.986 C 387.909 71.356,388.564 71.949,388.953 72.304 M332.037 108.799 C 338.231 109.769,342.832 110.483,346.708 111.079 C 348.944 111.422,350.941 111.743,351.146 111.792 C 351.351 111.841,353.419 112.167,355.742 112.516 C 358.064 112.865,361.754 113.422,363.942 113.754 C 367.296 114.264,369.817 114.625,375.033 115.341 C 376.096 115.486,375.998 115.590,373.967 116.468 C 372.974 116.897,371.047 117.741,369.686 118.343 C 368.325 118.944,366.257 119.855,365.091 120.366 C 363.924 120.877,362.572 121.477,362.086 121.700 C 361.600 121.922,359.810 122.716,358.109 123.464 C 356.407 124.212,354.339 125.127,353.513 125.496 C 352.687 125.865,351.335 126.462,350.508 126.823 C 349.682 127.184,348.290 127.798,347.415 128.188 C 346.540 128.577,345.148 129.197,344.322 129.564 C 343.495 129.931,341.666 130.746,340.256 131.375 C 338.847 132.004,337.017 132.817,336.191 133.181 C 335.365 133.544,333.973 134.161,333.098 134.551 C 332.223 134.941,330.831 135.560,330.004 135.927 C 329.178 136.294,327.349 137.110,325.939 137.740 C 324.529 138.370,321.984 139.500,320.283 140.251 C 318.582 141.002,316.513 141.919,315.687 142.289 C 314.861 142.658,312.992 143.493,311.533 144.143 C 308.343 145.566,306.150 146.552,304.391 147.352 C 303.671 147.680,303.057 147.924,303.028 147.894 C 302.998 147.865,303.498 146.373,304.138 144.579 C 306.413 138.201,308.617 131.614,308.617 131.191 C 308.617 130.901,309.093 130.240,310.090 129.146 C 310.900 128.257,314.054 124.666,317.098 121.167 C 324.126 113.087,323.499 113.812,325.993 110.871 C 328.477 107.941,327.875 108.148,332.037 108.799 M306.157 136.222 C 304.337 141.602,302.660 146.234,301.711 148.505 C 301.210 149.704,300.368 151.918,299.840 153.425 C 299.312 154.932,298.647 156.801,298.361 157.578 C 297.934 158.741,296.611 162.545,292.928 173.200 C 292.724 173.789,292.624 173.909,292.508 173.703 C 292.338 173.399,290.020 165.526,289.061 161.997 C 288.150 158.640,287.414 155.829,287.410 155.684 C 287.406 155.560,292.299 149.830,302.245 138.310 C 304.913 135.219,307.125 132.776,307.160 132.881 C 307.195 132.986,306.744 134.489,306.157 136.222 " stroke="none" fill="#dae7f4" fill-rule="evenodd"></path><path id="path1" d="M288.290 2.204 C 288.290 2.291,288.969 4.116,289.969 6.717 C 290.287 7.543,290.882 9.094,291.291 10.163 C 291.700 11.233,292.310 12.824,292.647 13.699 C 292.984 14.574,293.489 15.926,293.769 16.703 C 294.048 17.481,294.436 18.555,294.631 19.090 C 294.825 19.624,295.027 20.269,295.080 20.521 C 295.168 20.938,295.398 21.052,297.522 21.730 C 298.812 22.142,301.259 22.938,302.961 23.497 C 304.662 24.057,307.486 24.971,309.236 25.528 C 310.985 26.085,312.696 26.647,313.036 26.777 C 313.376 26.908,315.921 27.743,318.692 28.633 C 321.463 29.523,324.127 30.398,324.613 30.578 C 325.801 31.015,331.647 32.877,331.835 32.877 C 331.917 32.877,332.234 32.988,332.541 33.125 C 332.847 33.261,334.529 33.824,336.279 34.376 C 338.029 34.927,340.018 35.569,340.698 35.802 C 343.941 36.910,352.205 39.476,352.432 39.445 C 352.528 39.432,353.278 37.618,353.867 35.970 C 354.145 35.192,354.571 34.079,354.814 33.495 C 355.595 31.619,355.593 31.607,354.600 31.153 C 354.120 30.935,353.680 30.756,353.621 30.756 C 353.562 30.756,352.778 30.429,351.878 30.029 C 350.299 29.327,348.995 28.754,346.001 27.447 C 345.223 27.107,343.911 26.528,343.084 26.160 C 342.258 25.792,340.946 25.212,340.168 24.872 C 339.390 24.531,337.362 23.639,335.661 22.890 C 333.959 22.140,331.931 21.249,331.153 20.908 C 330.376 20.568,329.063 19.988,328.237 19.620 C 327.411 19.252,326.058 18.655,325.232 18.294 C 323.385 17.488,320.982 16.429,319.222 15.645 C 317.968 15.087,313.333 13.047,310.340 11.736 C 307.167 10.345,305.984 9.819,304.769 9.256 C 304.062 8.929,303.451 8.661,303.411 8.661 C 303.371 8.661,302.836 8.433,302.222 8.154 C 301.607 7.875,300.150 7.231,298.984 6.724 C 297.817 6.217,296.544 5.659,296.156 5.484 C 295.767 5.309,294.574 4.788,293.504 4.326 C 292.435 3.864,290.864 3.179,290.013 2.804 C 288.439 2.109,288.290 2.057,288.290 2.204 M161.796 41.191 C 157.047 42.131,154.018 47.448,155.372 52.467 C 157.204 59.256,166.717 60.930,170.945 55.207 C 175.770 48.676,169.844 39.598,161.796 41.191 M211.011 41.186 C 203.044 42.103,197.669 45.978,195.444 52.408 C 194.493 55.156,193.824 59.936,193.584 65.706 L 193.460 68.670 190.052 68.718 L 186.644 68.766 186.693 70.839 L 186.743 72.912 190.151 72.960 L 193.558 73.008 193.505 94.613 C 193.456 114.862,193.433 116.279,193.134 117.192 C 192.419 119.381,191.191 120.360,188.548 120.847 C 187.750 120.994,186.993 121.145,186.867 121.183 C 186.706 121.230,186.652 121.532,186.690 122.181 L 186.743 123.111 202.916 123.111 L 219.090 123.111 219.143 122.183 C 219.193 121.318,219.169 121.255,218.790 121.249 C 214.213 121.182,211.372 120.139,210.449 118.188 C 209.319 115.800,209.368 116.906,209.368 93.946 L 209.368 73.089 214.538 73.042 L 219.708 72.995 219.708 70.877 L 219.708 68.758 214.715 68.756 C 211.969 68.754,209.615 68.686,209.485 68.603 C 209.169 68.402,209.299 50.822,209.629 49.315 C 210.420 45.694,212.469 43.836,215.669 43.836 C 219.779 43.836,220.823 46.161,218.381 49.876 C 215.423 54.375,218.341 59.492,223.853 59.471 C 228.082 59.456,230.590 57.074,230.806 52.868 C 231.203 45.137,222.306 39.886,211.011 41.186 M38.984 41.697 C 38.834 41.987,38.521 42.726,38.288 43.339 C 38.055 43.952,37.545 45.250,37.155 46.222 C 36.765 47.194,36.160 48.705,35.810 49.580 C 35.461 50.455,35.096 51.330,35.000 51.525 C 34.903 51.719,34.629 52.395,34.390 53.027 C 34.151 53.659,33.590 55.051,33.142 56.120 C 32.695 57.190,32.099 58.661,31.818 59.390 C 31.537 60.119,30.940 61.591,30.490 62.660 C 30.041 63.730,29.525 65.018,29.343 65.523 C 29.162 66.028,28.891 66.704,28.742 67.026 C 28.592 67.347,27.861 69.121,27.118 70.968 C 26.374 72.815,25.250 75.599,24.618 77.154 C 23.987 78.710,23.200 80.680,22.870 81.532 C 22.540 82.385,22.193 83.220,22.098 83.388 C 22.004 83.557,21.679 84.331,21.376 85.108 C 20.619 87.051,19.609 89.573,18.827 91.471 C 18.199 92.993,17.993 93.505,16.544 97.128 C 16.195 98.003,15.830 98.878,15.735 99.072 C 15.640 99.266,15.322 100.042,15.028 100.795 C 14.060 103.279,13.446 104.808,13.112 105.569 C 12.931 105.982,12.677 106.597,12.549 106.938 C 9.036 116.238,6.274 119.825,1.864 120.815 L 0.972 121.015 0.920 122.109 L 0.867 123.202 12.585 123.156 L 24.304 123.111 24.357 122.095 L 24.410 121.078 23.296 121.077 C 18.846 121.072,15.363 119.397,14.672 116.930 C 14.158 115.094,14.682 113.191,18.372 103.491 C 18.779 102.422,19.273 101.089,19.471 100.530 L 19.829 99.514 33.733 99.516 L 47.636 99.518 47.944 100.179 C 48.114 100.542,48.502 101.436,48.806 102.165 C 49.110 102.894,49.711 104.326,50.141 105.347 C 55.364 117.746,54.273 121.078,44.992 121.078 L 43.659 121.078 43.659 122.139 L 43.659 123.199 62.660 123.199 L 81.662 123.199 81.662 122.169 L 81.662 121.139 80.468 120.921 C 76.936 120.274,74.318 117.217,71.251 110.158 C 70.967 109.505,70.400 108.215,69.992 107.291 C 69.583 106.368,68.986 104.976,68.666 104.198 C 68.346 103.420,67.790 102.108,67.432 101.281 C 66.693 99.576,65.668 97.142,64.975 95.449 C 64.716 94.817,64.357 93.981,64.175 93.593 C 63.994 93.204,63.430 91.891,62.923 90.676 C 62.415 89.461,61.541 87.393,60.981 86.080 C 60.421 84.768,59.545 82.700,59.035 81.485 C 57.860 78.682,56.683 75.919,56.325 75.122 C 56.172 74.781,55.636 73.509,55.135 72.293 C 54.634 71.078,54.026 69.648,53.786 69.116 C 53.545 68.583,53.204 67.788,53.028 67.348 C 52.852 66.909,52.336 65.674,51.881 64.605 C 51.426 63.535,50.849 62.143,50.600 61.511 C 50.350 60.879,50.083 60.280,50.006 60.180 C 49.929 60.080,49.631 59.404,49.343 58.678 C 49.055 57.952,48.446 56.483,47.988 55.413 C 47.531 54.344,46.973 53.031,46.747 52.497 C 46.522 51.962,45.965 50.650,45.511 49.580 C 45.056 48.511,44.422 47.000,44.102 46.222 C 43.782 45.444,43.172 44.012,42.746 43.040 L 41.972 41.273 40.615 41.221 C 39.266 41.170,39.255 41.173,38.984 41.697 M34.104 66.593 C 34.408 67.347,34.850 68.400,35.085 68.935 C 35.474 69.818,36.213 71.604,37.938 75.829 C 38.276 76.655,38.743 77.768,38.977 78.303 C 39.210 78.838,39.806 80.270,40.300 81.485 C 40.795 82.700,41.392 84.132,41.626 84.666 C 41.861 85.201,42.461 86.633,42.960 87.848 C 43.459 89.063,44.384 91.281,45.016 92.777 C 45.920 94.917,46.114 95.529,45.928 95.647 C 45.599 95.855,21.612 95.846,21.483 95.637 C 21.427 95.547,21.499 95.209,21.642 94.886 C 21.785 94.564,22.177 93.584,22.512 92.709 C 22.848 91.834,23.491 90.163,23.942 88.997 C 24.392 87.830,24.991 86.279,25.272 85.550 C 25.553 84.821,26.075 83.469,26.433 82.545 C 26.790 81.622,27.435 79.951,27.866 78.833 C 29.031 75.813,29.587 74.374,30.480 72.072 C 30.923 70.930,31.645 69.061,32.085 67.919 C 33.173 65.091,33.210 65.013,33.391 65.125 C 33.479 65.179,33.800 65.840,34.104 66.593 M131.065 67.283 C 125.884 68.075,122.111 70.757,117.399 76.995 C 115.635 79.330,115.776 79.605,115.776 73.817 L 115.776 68.758 104.905 68.758 L 94.034 68.758 94.034 69.718 L 94.034 70.678 95.051 70.878 C 98.305 71.521,99.662 72.676,100.202 75.263 C 100.540 76.879,100.471 115.119,100.128 116.628 C 99.605 118.925,98.203 120.160,95.358 120.831 L 94.034 121.143 94.034 122.171 L 94.034 123.199 109.501 123.199 L 124.967 123.199 124.967 122.241 L 124.967 121.283 123.774 121.168 C 119.230 120.728,117.701 119.704,116.692 116.421 C 116.262 115.022,116.156 87.121,116.572 84.900 C 117.206 81.516,119.269 78.336,121.589 77.166 C 123.961 75.970,125.517 76.523,127.793 79.373 C 131.832 84.432,136.827 85.201,140.007 81.254 C 144.873 75.214,139.018 66.067,131.065 67.283 M149.713 69.724 L 149.713 70.689 150.464 70.879 C 153.683 71.694,155.048 72.704,155.677 74.736 C 156.163 76.309,156.155 115.322,155.668 116.900 C 154.998 119.068,153.839 120.014,150.866 120.819 L 149.713 121.131 149.713 122.165 L 149.713 123.199 163.588 123.199 L 177.464 123.199 177.464 122.162 L 177.464 121.124 176.536 121.001 C 174.781 120.769,173.328 119.853,172.670 118.563 C 171.806 116.869,171.814 117.095,171.810 92.134 L 171.807 68.758 160.760 68.758 L 149.713 68.758 149.713 69.724 M230.844 69.704 L 230.844 70.649 232.318 71.039 C 236.931 72.257,236.850 71.844,236.853 94.211 C 236.856 112.573,236.868 112.803,237.985 115.730 C 240.362 121.957,245.669 125.087,253.269 124.744 C 258.793 124.495,262.527 122.768,268.723 117.594 C 269.447 116.990,270.088 116.546,270.150 116.607 C 270.211 116.668,270.261 118.455,270.261 120.577 C 270.261 122.700,270.312 124.437,270.374 124.437 C 270.436 124.437,271.330 124.189,272.362 123.886 C 276.018 122.813,280.009 122.101,285.108 121.612 C 289.043 121.235,291.447 120.959,292.134 120.806 C 292.479 120.730,292.532 120.605,292.532 119.872 L 292.532 119.026 291.162 118.799 C 288.062 118.287,286.849 117.177,286.103 114.173 C 285.845 113.132,285.815 110.744,285.815 90.886 L 285.815 68.758 274.238 68.758 L 262.660 68.758 262.660 69.704 L 262.660 70.649 264.144 70.857 C 267.495 71.325,268.798 72.204,269.584 74.525 L 269.996 75.740 270.044 94.057 L 270.092 112.374 268.983 113.433 C 266.553 115.755,265.221 116.649,263.066 117.405 C 259.088 118.801,254.848 117.652,253.469 114.803 C 252.524 112.851,252.528 112.966,252.458 90.013 L 252.394 68.758 241.619 68.758 L 230.844 68.758 230.844 69.704 M382.579 71.742 C 379.332 73.385,374.763 75.604,371.484 77.132 C 370.140 77.759,369.006 78.306,368.964 78.348 C 368.922 78.390,369.052 78.934,369.253 79.557 C 369.454 80.180,369.809 81.445,370.040 82.369 C 370.272 83.292,370.829 85.440,371.278 87.141 C 372.399 91.386,373.254 94.691,373.748 96.686 C 375.130 102.273,375.461 103.581,375.690 104.375 C 375.831 104.861,376.195 106.332,376.499 107.645 C 376.803 108.957,377.140 110.409,377.248 110.871 C 377.414 111.577,377.721 112.027,377.732 111.578 C 377.739 111.283,378.988 104.131,379.669 100.486 C 380.824 94.303,381.568 90.278,382.137 87.141 C 382.710 83.975,383.150 81.952,383.385 81.396 C 383.467 81.202,383.576 80.513,383.628 79.865 C 383.680 79.217,383.920 77.706,384.162 76.507 C 384.977 72.459,385.345 70.483,385.293 70.439 C 385.264 70.415,384.043 71.001,382.579 71.742 M386.668 70.718 C 386.280 71.837,384.870 80.377,385.044 80.552 C 385.234 80.742,396.003 80.838,397.044 80.658 L 397.889 80.513 395.731 78.568 C 394.544 77.499,392.295 75.482,390.733 74.087 C 389.170 72.691,387.636 71.306,387.323 71.008 C 386.900 70.606,386.732 70.532,386.668 70.718 M327.608 109.181 C 325.986 111.183,312.446 126.806,309.857 129.662 C 309.272 130.308,308.793 130.967,308.791 131.127 C 308.788 131.508,307.745 134.730,306.093 139.461 C 303.922 145.680,303.464 146.957,303.290 147.282 C 303.040 147.751,303.304 147.681,305.396 146.729 C 309.465 144.877,313.881 142.903,317.190 141.456 C 318.859 140.726,321.427 139.583,322.669 139.017 C 323.155 138.795,326.376 137.366,329.828 135.840 C 333.279 134.314,336.858 132.724,337.782 132.308 C 338.705 131.891,340.057 131.292,340.787 130.977 C 341.516 130.661,342.589 130.184,343.173 129.917 C 344.198 129.446,348.931 127.349,351.834 126.079 C 352.612 125.738,353.924 125.158,354.750 124.788 C 355.577 124.419,358.361 123.186,360.937 122.048 C 363.513 120.909,366.124 119.748,366.738 119.468 C 367.352 119.187,367.889 118.957,367.930 118.957 C 367.998 118.957,369.854 118.133,372.426 116.962 C 372.961 116.718,373.875 116.319,374.458 116.075 L 375.518 115.631 374.900 115.531 C 374.227 115.422,373.629 115.334,367.565 114.446 C 362.570 113.715,352.189 112.118,342.908 110.653 C 340.429 110.261,336.810 109.704,334.865 109.415 C 332.921 109.125,330.972 108.811,330.535 108.716 C 328.357 108.247,328.366 108.246,327.608 109.181 " stroke="none" fill="#064489" fill-rule="evenodd"></path><path id="path2" d="M296.067 22.586 C 296.067 22.635,296.339 23.320,296.671 24.108 C 297.391 25.819,298.327 28.195,299.044 30.137 C 299.531 31.455,299.944 32.528,301.474 36.456 C 302.382 38.786,303.191 40.882,304.017 43.040 C 304.426 44.110,305.032 45.681,305.363 46.531 C 306.292 48.916,307.092 50.987,307.906 53.115 C 308.315 54.185,308.921 55.756,309.252 56.606 C 310.181 58.991,310.980 61.062,311.794 63.190 C 312.204 64.260,312.809 65.831,313.141 66.681 C 313.472 67.532,314.029 68.964,314.379 69.863 C 314.729 70.762,315.249 72.134,315.534 72.912 C 315.820 73.690,316.167 74.571,316.305 74.869 C 316.541 75.377,316.888 76.289,318.184 79.806 C 318.470 80.583,318.815 81.458,318.950 81.750 C 319.086 82.042,319.392 82.797,319.631 83.429 C 320.228 85.011,321.435 88.163,322.135 89.969 C 322.455 90.795,323.051 92.346,323.460 93.416 C 323.869 94.485,324.478 96.076,324.813 96.951 C 325.667 99.183,326.575 101.600,327.336 103.668 C 328.369 106.474,328.384 106.471,329.391 103.226 C 329.557 102.691,329.801 102.015,329.932 101.723 C 330.168 101.199,330.942 99.067,331.955 96.156 C 332.242 95.329,332.558 94.494,332.656 94.300 C 332.754 94.105,333.069 93.270,333.356 92.444 C 333.643 91.617,334.241 89.947,334.685 88.732 C 335.130 87.517,335.725 85.886,336.008 85.108 C 336.291 84.331,336.815 82.899,337.171 81.927 C 337.528 80.954,338.048 79.501,338.325 78.696 C 338.603 77.891,338.945 76.976,339.085 76.663 C 339.225 76.350,339.499 75.616,339.694 75.033 C 339.889 74.450,340.421 72.978,340.875 71.763 C 342.302 67.944,343.856 63.725,344.846 60.981 C 345.144 60.155,345.467 59.319,345.563 59.125 C 345.659 58.931,345.972 58.095,346.258 57.269 C 346.544 56.443,347.105 54.892,347.503 53.822 C 347.902 52.753,348.459 51.242,348.741 50.464 C 349.533 48.276,350.559 45.530,351.383 43.394 C 351.795 42.324,352.144 41.309,352.160 41.137 C 352.190 40.799,351.652 40.592,346.531 38.973 C 345.073 38.512,341.983 37.508,339.665 36.743 C 337.346 35.978,335.370 35.351,335.272 35.351 C 335.175 35.351,334.845 35.241,334.538 35.106 C 334.232 34.971,332.550 34.405,330.800 33.848 C 325.639 32.206,319.554 30.226,318.604 29.880 C 318.118 29.703,316.288 29.105,314.538 28.552 C 312.788 27.999,310.959 27.401,310.473 27.223 C 309.987 27.046,308.277 26.488,306.673 25.983 C 305.068 25.479,303.358 24.924,302.872 24.751 C 300.731 23.989,296.067 22.505,296.067 22.586 M230.885 52.497 C 230.885 52.837,230.921 52.976,230.966 52.806 C 231.010 52.636,231.010 52.357,230.966 52.187 C 230.921 52.017,230.885 52.156,230.885 52.497 M362.022 56.562 C 362.022 56.708,362.091 56.986,362.174 57.181 C 362.270 57.404,362.326 57.436,362.326 57.269 C 362.326 57.123,362.258 56.845,362.174 56.650 C 362.078 56.428,362.022 56.395,362.022 56.562 M262.536 69.642 C 262.536 70.177,262.570 70.395,262.610 70.128 C 262.651 69.861,262.651 69.423,262.610 69.156 C 262.570 68.889,262.536 69.107,262.536 69.642 M188.476 73.132 C 189.429 73.164,190.940 73.164,191.834 73.132 C 192.728 73.100,191.949 73.074,190.102 73.074 C 188.255 73.074,187.523 73.100,188.476 73.132 M212.163 73.133 C 213.603 73.162,215.909 73.162,217.289 73.133 C 218.668 73.103,217.490 73.078,214.671 73.078 C 211.852 73.079,210.723 73.103,212.163 73.133 M269.992 95.095 C 269.992 104.671,270.014 108.588,270.040 103.800 C 270.066 99.012,270.066 91.178,270.040 86.390 C 270.014 81.602,269.992 85.519,269.992 95.095 M155.984 95.890 C 155.984 105.806,156.006 109.837,156.032 104.847 C 156.058 99.858,156.058 91.744,156.032 86.818 C 156.006 81.892,155.984 85.974,155.984 95.890 M81.716 122.050 C 81.717 122.634,81.750 122.851,81.790 122.533 C 81.829 122.216,81.828 121.738,81.788 121.473 C 81.747 121.207,81.715 121.467,81.716 122.050 M219.176 122.191 L 219.261 123.288 219.318 122.334 C 219.350 121.810,219.311 121.317,219.232 121.238 C 219.154 121.159,219.128 121.588,219.176 122.191 M306.663 134.094 C 306.566 134.351,306.519 134.594,306.559 134.634 C 306.599 134.674,306.716 134.464,306.820 134.167 C 307.050 133.508,306.911 133.443,306.663 134.094 M300.563 140.389 L 300.044 140.963 300.619 140.444 C 301.154 139.960,301.274 139.814,301.138 139.814 C 301.107 139.814,300.849 140.073,300.563 140.389 M299.503 141.626 L 298.984 142.201 299.558 141.681 C 300.094 141.198,300.214 141.052,300.077 141.052 C 300.047 141.052,299.788 141.310,299.503 141.626 M298.266 143.040 L 297.746 143.615 298.321 143.096 C 298.856 142.612,298.977 142.466,298.840 142.466 C 298.810 142.466,298.551 142.724,298.266 143.040 M291.726 150.641 L 291.206 151.215 291.781 150.696 C 292.316 150.212,292.437 150.066,292.300 150.066 C 292.270 150.066,292.011 150.325,291.726 150.641 M289.428 153.292 L 288.909 153.867 289.483 153.347 C 290.018 152.863,290.139 152.718,290.002 152.718 C 289.972 152.718,289.713 152.976,289.428 153.292 M293.760 170.153 C 293.662 170.409,293.615 170.652,293.656 170.692 C 293.696 170.732,293.813 170.522,293.916 170.226 C 294.146 169.566,294.008 169.502,293.760 170.153 " stroke="none" fill="#5b93d3" fill-rule="evenodd"></path><path id="path3" d="M355.475 35.037 C 355.146 35.939,354.654 37.288,354.380 38.036 C 354.107 38.783,353.801 39.539,353.699 39.715 C 353.524 40.021,353.019 41.348,351.897 44.454 C 351.616 45.232,351.310 46.027,351.216 46.222 C 351.123 46.416,350.758 47.371,350.404 48.343 C 350.051 49.315,349.448 50.946,349.065 51.966 C 348.682 52.987,348.139 54.459,347.857 55.236 C 347.575 56.014,347.018 57.525,346.620 58.595 C 346.221 59.664,345.660 61.215,345.374 62.042 C 345.088 62.868,344.774 63.703,344.676 63.897 C 344.578 64.092,344.305 64.808,344.069 65.488 C 343.833 66.169,343.272 67.720,342.822 68.935 C 342.373 70.150,341.774 71.781,341.493 72.559 C 341.212 73.336,340.655 74.848,340.256 75.917 C 339.858 76.986,339.297 78.537,339.011 79.364 C 338.725 80.190,338.410 81.025,338.312 81.220 C 338.214 81.414,337.899 82.249,337.612 83.076 C 337.325 83.902,336.725 85.572,336.279 86.787 C 335.833 88.003,335.237 89.633,334.955 90.411 C 334.673 91.189,334.075 92.819,333.625 94.034 C 333.175 95.250,332.614 96.801,332.378 97.481 C 332.143 98.162,331.871 98.878,331.774 99.072 C 331.678 99.266,331.446 99.903,331.259 100.486 C 331.071 101.069,330.508 102.660,330.007 104.021 C 328.975 106.821,328.839 107.290,329.056 107.294 C 329.140 107.296,330.482 107.496,332.037 107.740 C 333.593 107.984,336.655 108.458,338.842 108.794 C 341.030 109.129,344.609 109.687,346.796 110.034 C 348.984 110.381,352.603 110.936,354.839 111.269 C 357.075 111.602,359.103 111.924,359.346 111.986 C 359.846 112.112,366.114 113.062,371.542 113.834 C 373.535 114.118,375.513 114.435,375.938 114.540 C 376.894 114.776,376.950 114.722,376.716 113.787 C 376.612 113.374,376.244 111.882,375.897 110.473 C 375.550 109.063,374.939 106.637,374.539 105.082 C 373.832 102.333,373.277 100.120,372.014 95.007 C 371.678 93.646,371.349 92.400,371.283 92.239 C 371.217 92.077,370.934 91.003,370.654 89.852 C 369.997 87.149,368.886 82.825,368.186 80.247 C 367.882 79.129,367.325 77.022,366.947 75.563 C 366.569 74.105,366.165 72.594,366.049 72.205 C 365.933 71.816,365.654 70.742,365.430 69.819 C 365.206 68.895,364.693 66.867,364.292 65.312 C 363.890 63.756,363.297 61.410,362.975 60.097 C 362.652 58.785,362.334 57.579,362.268 57.418 C 362.202 57.256,361.920 56.182,361.640 55.031 C 361.360 53.880,360.803 51.666,360.402 50.110 C 360.001 48.555,359.402 46.209,359.071 44.896 C 358.739 43.584,358.152 41.317,357.766 39.859 C 357.379 38.400,356.840 36.350,356.568 35.302 L 356.073 33.396 355.475 35.037 M39.179 41.140 C 39.134 41.213,39.758 41.273,40.566 41.273 C 41.373 41.273,41.997 41.213,41.952 41.140 C 41.907 41.067,41.283 41.008,40.566 41.008 C 39.848 41.008,39.224 41.067,39.179 41.140 M227.486 45.128 C 227.486 45.159,227.744 45.417,228.060 45.703 L 228.635 46.222 228.115 45.647 C 227.631 45.112,227.486 44.992,227.486 45.128 M154.883 49.934 C 154.885 50.323,154.921 50.461,154.964 50.241 C 155.006 50.021,155.004 49.703,154.960 49.534 C 154.916 49.365,154.881 49.545,154.883 49.934 M209.361 60.274 C 209.361 64.892,209.384 66.781,209.412 64.472 C 209.440 62.163,209.440 58.385,209.412 56.076 C 209.384 53.767,209.361 55.656,209.361 60.274 M217.105 53.557 C 217.105 53.995,217.140 54.174,217.182 53.955 C 217.224 53.736,217.224 53.378,217.182 53.160 C 217.140 52.941,217.105 53.120,217.105 53.557 M156.960 55.734 C 156.960 55.764,157.218 56.023,157.534 56.308 L 158.109 56.827 157.590 56.253 C 157.106 55.717,156.960 55.597,156.960 55.734 M193.766 61.335 C 193.766 61.675,193.803 61.814,193.847 61.644 C 193.891 61.474,193.891 61.195,193.847 61.025 C 193.803 60.855,193.766 60.994,193.766 61.335 M133.142 67.289 C 133.312 67.334,133.590 67.334,133.760 67.289 C 133.931 67.245,133.791 67.208,133.451 67.208 C 133.111 67.208,132.972 67.245,133.142 67.289 M93.929 68.826 C 93.878 68.961,93.866 69.419,93.904 69.843 C 93.972 70.607,93.973 70.605,94.004 69.688 L 94.034 68.761 104.949 68.714 L 115.864 68.667 104.944 68.624 C 95.772 68.588,94.008 68.621,93.929 68.826 M149.608 68.826 C 149.556 68.961,149.545 69.419,149.582 69.843 C 149.650 70.607,149.651 70.605,149.682 69.688 L 149.713 68.761 160.804 68.714 L 171.896 68.667 160.799 68.624 C 151.476 68.588,149.687 68.621,149.608 68.826 M188.290 68.713 C 189.238 68.745,190.789 68.745,191.737 68.713 C 192.684 68.682,191.909 68.656,190.013 68.656 C 188.118 68.656,187.342 68.682,188.290 68.713 M214.665 68.713 L 219.698 68.764 219.755 70.838 L 219.813 72.912 219.805 70.791 L 219.797 68.670 214.715 68.666 L 209.633 68.662 214.665 68.713 M241.625 68.713 L 252.407 68.761 252.453 89.131 L 252.499 109.501 252.498 89.085 L 252.497 68.670 241.670 68.668 L 230.844 68.666 241.625 68.713 M274.193 68.713 L 285.814 68.761 285.860 90.987 L 285.906 113.213 285.905 90.941 L 285.904 68.670 274.238 68.668 L 262.572 68.666 274.193 68.713 M122.216 71.454 L 121.697 72.028 122.271 71.509 C 122.587 71.224,122.846 70.965,122.846 70.935 C 122.846 70.798,122.700 70.918,122.216 71.454 M120.185 73.487 L 119.576 74.149 120.239 73.540 C 120.856 72.973,120.983 72.824,120.848 72.824 C 120.818 72.824,120.520 73.122,120.185 73.487 M209.361 73.221 C 209.315 73.343,209.298 82.391,209.323 93.327 L 209.368 113.213 209.456 93.106 C 209.505 82.048,209.522 73.000,209.495 73.000 C 209.468 73.000,209.408 73.100,209.361 73.221 M269.955 77.066 C 269.955 77.503,269.990 77.682,270.032 77.464 C 270.074 77.245,270.074 76.887,270.032 76.668 C 269.990 76.449,269.955 76.628,269.955 77.066 M123.420 76.657 C 123.590 76.702,123.869 76.702,124.039 76.657 C 124.209 76.613,124.070 76.577,123.730 76.577 C 123.389 76.577,123.250 76.613,123.420 76.657 M155.940 77.419 C 155.940 77.760,155.977 77.899,156.021 77.729 C 156.066 77.559,156.066 77.280,156.021 77.110 C 155.977 76.940,155.940 77.079,155.940 77.419 M236.762 93.416 C 236.762 102.457,236.783 106.130,236.810 101.577 C 236.836 97.025,236.836 89.628,236.809 85.139 C 236.783 80.650,236.762 84.375,236.762 93.416 M119.744 78.524 L 119.046 79.275 119.797 78.577 C 120.495 77.927,120.629 77.773,120.495 77.773 C 120.467 77.773,120.129 78.111,119.744 78.524 M385.373 80.723 C 385.544 80.767,385.822 80.767,385.992 80.723 C 386.162 80.678,386.023 80.642,385.683 80.642 C 385.342 80.642,385.203 80.678,385.373 80.723 M21.433 95.449 C 21.496 95.681,23.010 95.714,33.687 95.716 L 45.868 95.717 33.770 95.670 C 24.373 95.633,21.637 95.574,21.516 95.403 C 21.402 95.241,21.380 95.254,21.433 95.449 M53.257 115.952 C 53.257 116.487,53.290 116.706,53.330 116.438 C 53.371 116.171,53.371 115.734,53.330 115.466 C 53.290 115.199,53.257 115.418,53.257 115.952 M270.047 120.422 C 270.075 122.579,270.154 124.401,270.223 124.470 C 270.292 124.540,270.326 122.831,270.298 120.674 C 270.270 118.517,270.191 116.695,270.121 116.626 C 270.052 116.556,270.019 118.265,270.047 120.422 M6.617 118.118 L 6.098 118.692 6.673 118.173 C 6.989 117.887,7.247 117.629,7.247 117.598 C 7.247 117.462,7.101 117.582,6.617 118.118 M259.081 118.024 C 259.397 118.064,259.914 118.064,260.230 118.024 C 260.546 117.985,260.287 117.953,259.655 117.953 C 259.023 117.953,258.765 117.985,259.081 118.024 M292.563 119.782 C 292.545 120.321,292.442 120.732,292.311 120.784 C 292.138 120.854,292.139 120.877,292.317 120.888 C 292.637 120.907,292.742 120.531,292.662 119.640 L 292.594 118.869 292.563 119.782 M93.912 122.050 C 93.913 122.634,93.946 122.851,93.986 122.533 C 94.025 122.216,94.024 121.738,93.984 121.473 C 93.944 121.207,93.911 121.467,93.912 122.050 M149.591 122.050 C 149.592 122.634,149.625 122.851,149.664 122.533 C 149.703 122.216,149.703 121.738,149.662 121.473 C 149.622 121.207,149.590 121.467,149.591 122.050 M218.075 121.203 C 218.295 121.246,218.613 121.244,218.782 121.200 C 218.951 121.155,218.772 121.121,218.383 121.123 C 217.994 121.125,217.856 121.161,218.075 121.203 M125.022 122.227 C 125.023 122.810,125.056 123.028,125.095 122.710 C 125.134 122.392,125.133 121.915,125.093 121.650 C 125.053 121.384,125.021 121.644,125.022 122.227 M251.830 124.918 C 252.144 124.957,252.700 124.957,253.067 124.919 C 253.434 124.881,253.177 124.849,252.497 124.848 C 251.816 124.847,251.516 124.879,251.830 124.918 M304.110 136.412 C 302.554 138.217,299.651 141.576,297.658 143.877 C 295.665 146.179,293.677 148.487,293.239 149.007 C 292.802 149.526,291.646 150.872,290.672 151.997 C 287.452 155.716,287.513 155.625,287.725 156.386 C 287.827 156.750,288.230 158.241,288.621 159.700 C 290.151 165.408,291.073 168.650,291.990 171.542 L 292.661 173.663 293.242 171.807 C 293.562 170.787,293.893 169.832,293.978 169.686 C 294.063 169.540,294.365 168.705,294.650 167.830 C 295.147 166.299,295.649 164.836,297.048 160.848 C 297.406 159.828,298.003 158.118,298.376 157.048 C 299.709 153.223,300.315 151.560,300.575 151.012 C 300.721 150.705,300.840 150.367,300.840 150.261 C 300.840 150.154,301.149 149.371,301.527 148.520 C 301.905 147.669,302.312 146.655,302.432 146.266 C 302.551 145.877,302.756 145.320,302.888 145.029 C 303.182 144.375,304.008 142.027,305.529 137.517 C 306.169 135.621,306.780 133.891,306.889 133.672 C 307.341 132.760,306.792 133.301,304.110 136.412 " stroke="none" fill="#3474c3" fill-rule="evenodd"></path><path id="path4" d="M306.142 9.810 C 306.385 9.949,306.664 10.063,306.761 10.063 C 306.858 10.063,306.739 9.949,306.496 9.810 C 306.253 9.671,305.974 9.557,305.877 9.557 C 305.780 9.557,305.899 9.671,306.142 9.810 M295.893 22.492 C 295.895 22.614,295.979 22.833,296.081 22.978 C 296.227 23.186,296.243 23.158,296.156 22.847 C 296.064 22.521,296.101 22.469,296.365 22.554 C 296.633 22.641,296.642 22.627,296.421 22.467 C 296.069 22.214,295.890 22.223,295.893 22.492 M298.365 23.215 C 298.365 23.320,300.486 24.044,300.741 24.026 C 300.844 24.019,300.530 23.871,300.044 23.698 C 298.702 23.220,298.365 23.123,298.365 23.215 M296.794 24.658 C 296.798 24.755,296.953 25.152,297.140 25.541 C 297.327 25.930,297.431 26.049,297.370 25.806 C 297.246 25.306,296.785 24.387,296.794 24.658 M303.114 24.841 C 303.441 24.983,303.799 25.093,303.909 25.085 C 304.188 25.065,303.111 24.585,302.784 24.584 C 302.638 24.583,302.786 24.699,303.114 24.841 M306.957 26.064 C 307.260 26.203,307.737 26.363,308.018 26.418 C 308.455 26.504,308.439 26.484,307.910 26.276 C 306.955 25.902,306.281 25.752,306.957 26.064 M310.915 27.379 C 311.061 27.460,311.418 27.574,311.710 27.631 L 312.240 27.736 311.710 27.486 C 311.114 27.205,310.439 27.114,310.915 27.379 M298.032 27.839 C 298.035 27.936,298.191 28.334,298.378 28.723 C 298.565 29.112,298.668 29.231,298.608 28.988 C 298.483 28.488,298.022 27.569,298.032 27.839 M314.096 28.341 C 314.096 28.446,316.217 29.170,316.473 29.152 C 316.575 29.145,316.262 28.997,315.776 28.824 C 314.434 28.346,314.096 28.249,314.096 28.341 M318.338 29.758 C 318.338 29.888,320.142 30.425,320.242 30.325 C 320.284 30.283,319.987 30.159,319.583 30.050 C 319.178 29.941,318.732 29.808,318.593 29.755 C 318.453 29.701,318.338 29.702,318.338 29.758 M322.227 30.993 C 322.227 31.097,324.348 31.821,324.603 31.803 C 324.706 31.796,324.392 31.649,323.906 31.476 C 322.564 30.998,322.227 30.901,322.227 30.993 M299.446 31.551 C 299.449 31.648,299.605 32.046,299.792 32.435 C 299.979 32.824,300.082 32.943,300.022 32.700 C 299.897 32.199,299.437 31.281,299.446 31.551 M326.400 32.427 C 326.703 32.567,327.180 32.726,327.461 32.781 C 327.898 32.868,327.882 32.847,327.353 32.639 C 326.398 32.265,325.724 32.115,326.400 32.427 M330.358 33.644 C 330.358 33.749,332.479 34.472,332.734 34.455 C 332.837 34.448,332.523 34.300,332.037 34.127 C 330.695 33.649,330.358 33.552,330.358 33.644 M300.751 34.954 C 300.820 35.124,300.997 35.605,301.143 36.024 C 301.290 36.442,301.443 36.751,301.484 36.710 C 301.578 36.616,300.848 34.644,300.720 34.644 C 300.668 34.644,300.682 34.783,300.751 34.954 M334.339 34.980 C 334.434 35.073,334.750 35.206,335.042 35.275 C 335.726 35.437,335.572 35.287,334.781 35.019 C 334.443 34.905,334.244 34.888,334.339 34.980 M356.543 34.998 C 356.543 35.144,356.611 35.422,356.695 35.616 C 356.790 35.839,356.847 35.872,356.847 35.705 C 356.847 35.559,356.778 35.281,356.695 35.086 C 356.599 34.863,356.543 34.831,356.543 34.998 M337.958 36.112 C 337.958 36.231,340.120 36.960,340.210 36.871 C 340.248 36.832,339.856 36.662,339.340 36.492 C 338.823 36.323,338.301 36.147,338.179 36.102 C 338.058 36.057,337.958 36.061,337.958 36.112 M342.662 37.735 C 342.964 37.872,343.442 38.032,343.723 38.090 L 344.233 38.197 343.703 37.952 C 343.411 37.817,342.934 37.657,342.643 37.597 L 342.112 37.487 342.662 37.735 M302.004 38.179 C 302.068 38.422,302.233 38.820,302.371 39.063 L 302.620 39.505 302.503 39.063 C 302.439 38.820,302.274 38.422,302.137 38.179 L 301.887 37.738 302.004 38.179 M346.551 38.967 C 346.853 39.107,347.330 39.266,347.611 39.321 C 348.048 39.408,348.033 39.387,347.503 39.179 C 346.549 38.805,345.874 38.655,346.551 38.967 M350.439 40.204 C 350.742 40.344,351.219 40.503,351.500 40.559 C 351.937 40.645,351.921 40.624,351.392 40.417 C 350.437 40.042,349.763 39.892,350.439 40.204 M163.279 40.959 C 163.595 40.998,164.112 40.998,164.428 40.959 C 164.744 40.919,164.485 40.887,163.853 40.887 C 163.221 40.887,162.963 40.919,163.279 40.959 M213.831 40.961 C 214.342 40.997,215.177 40.997,215.687 40.961 C 216.198 40.925,215.780 40.896,214.759 40.896 C 213.738 40.896,213.321 40.925,213.831 40.961 M303.251 41.360 C 303.314 41.603,303.513 42.120,303.694 42.509 C 303.874 42.898,303.970 43.018,303.907 42.776 C 303.845 42.533,303.645 42.016,303.465 41.627 C 303.285 41.238,303.188 41.118,303.251 41.360 M351.856 42.064 C 351.457 43.061,351.519 43.210,351.938 42.263 C 352.128 41.836,352.252 41.455,352.213 41.416 C 352.175 41.378,352.014 41.669,351.856 42.064 M157.393 43.526 L 156.695 44.278 157.446 43.579 C 158.144 42.929,158.278 42.775,158.145 42.775 C 158.116 42.775,157.778 43.113,157.393 43.526 M170.032 43.526 C 170.466 43.988,170.844 44.366,170.872 44.366 C 171.005 44.366,170.864 44.207,170.084 43.475 L 169.244 42.687 170.032 43.526 M304.572 44.808 C 304.575 44.905,304.731 45.303,304.918 45.692 C 305.105 46.080,305.208 46.200,305.148 45.957 C 305.023 45.456,304.562 44.537,304.572 44.808 M350.342 46.056 C 350.135 46.610,349.996 47.095,350.034 47.132 C 350.072 47.170,350.275 46.750,350.486 46.200 C 350.697 45.649,350.836 45.165,350.794 45.123 C 350.753 45.082,350.550 45.502,350.342 46.056 M305.809 47.989 C 305.812 48.087,305.968 48.484,306.155 48.873 C 306.342 49.262,306.446 49.381,306.385 49.138 C 306.260 48.638,305.800 47.719,305.809 47.989 M349.114 49.335 C 349.005 49.647,348.947 49.934,348.985 49.971 C 349.022 50.009,349.142 49.785,349.251 49.472 C 349.360 49.160,349.418 48.873,349.380 48.835 C 349.343 48.798,349.223 49.022,349.114 49.335 M209.509 51.613 C 209.509 52.148,209.543 52.366,209.583 52.099 C 209.624 51.832,209.624 51.394,209.583 51.127 C 209.543 50.859,209.509 51.078,209.509 51.613 M307.140 51.435 C 307.203 51.678,307.402 52.195,307.582 52.584 C 307.763 52.974,307.859 53.094,307.796 52.851 C 307.733 52.608,307.534 52.091,307.354 51.702 C 307.173 51.313,307.077 51.193,307.140 51.435 M347.789 52.959 C 347.632 53.418,347.535 53.825,347.572 53.862 C 347.610 53.899,347.768 53.554,347.925 53.095 C 348.081 52.636,348.179 52.229,348.141 52.192 C 348.104 52.155,347.945 52.500,347.789 52.959 M308.460 54.883 C 308.464 54.980,308.619 55.378,308.806 55.767 C 308.993 56.156,309.097 56.275,309.036 56.032 C 308.912 55.531,308.451 54.613,308.460 54.883 M346.639 56.051 C 346.530 56.364,346.472 56.650,346.510 56.688 C 346.548 56.726,346.668 56.501,346.777 56.189 C 346.886 55.877,346.944 55.590,346.906 55.552 C 346.868 55.514,346.748 55.739,346.639 56.051 M228.890 57.755 L 228.281 58.418 228.944 57.809 C 229.308 57.474,229.607 57.176,229.607 57.146 C 229.607 57.011,229.457 57.138,228.890 57.755 M309.698 58.065 C 309.701 58.162,309.857 58.559,310.044 58.948 C 310.231 59.337,310.334 59.456,310.274 59.213 C 310.149 58.713,309.688 57.794,309.698 58.065 M163.102 58.813 C 163.515 58.850,164.191 58.850,164.605 58.813 C 165.018 58.775,164.680 58.745,163.853 58.745 C 163.027 58.745,162.689 58.775,163.102 58.813 M345.401 59.434 C 345.122 60.183,345.005 60.627,345.089 60.627 C 345.135 60.627,345.294 60.270,345.443 59.832 C 345.716 59.033,345.680 58.691,345.401 59.434 M310.927 61.198 C 310.907 61.408,311.483 62.770,311.559 62.693 C 311.598 62.655,311.474 62.274,311.284 61.846 C 311.095 61.419,310.934 61.127,310.927 61.198 M193.589 62.395 C 193.589 62.735,193.626 62.875,193.670 62.704 C 193.715 62.534,193.715 62.256,193.670 62.086 C 193.626 61.916,193.589 62.055,193.589 62.395 M344.001 63.224 C 343.796 63.780,343.657 64.264,343.693 64.300 C 343.728 64.335,343.927 63.910,344.134 63.356 C 344.341 62.802,344.480 62.318,344.442 62.280 C 344.405 62.243,344.206 62.667,344.001 63.224 M312.349 64.958 C 312.352 65.055,312.508 65.453,312.695 65.842 C 312.882 66.231,312.985 66.350,312.925 66.107 C 312.800 65.606,312.340 64.688,312.349 64.958 M342.576 67.101 C 342.365 67.652,342.223 68.132,342.259 68.169 C 342.296 68.205,342.498 67.785,342.709 67.234 C 342.920 66.683,343.062 66.203,343.026 66.166 C 342.989 66.130,342.787 66.550,342.576 67.101 M193.422 67.786 C 193.424 68.272,193.458 68.450,193.498 68.181 C 193.539 67.913,193.538 67.515,193.496 67.298 C 193.454 67.080,193.421 67.300,193.422 67.786 M313.654 68.361 C 313.724 68.531,313.900 69.012,314.047 69.431 C 314.193 69.849,314.346 70.158,314.388 70.117 C 314.481 70.023,313.751 68.051,313.623 68.051 C 313.571 68.051,313.585 68.190,313.654 68.361 M115.817 73.575 C 115.778 78.318,115.844 79.084,116.234 78.453 C 116.312 78.327,116.283 78.296,116.159 78.373 C 116.011 78.465,115.945 77.181,115.908 73.495 L 115.858 68.493 115.817 73.575 M171.893 91.737 C 171.893 104.521,171.914 109.750,171.940 103.358 C 171.966 96.966,171.966 86.507,171.940 80.115 C 171.914 73.723,171.893 78.953,171.893 91.737 M186.546 70.791 C 186.546 71.958,186.575 72.412,186.609 71.800 C 186.644 71.189,186.644 70.235,186.609 69.679 C 186.574 69.124,186.545 69.624,186.546 70.791 M219.953 70.791 C 219.953 71.958,219.982 72.412,220.016 71.800 C 220.051 71.189,220.050 70.235,220.016 69.679 C 219.981 69.124,219.952 69.624,219.953 70.791 M230.688 69.676 C 230.676 70.229,230.727 70.719,230.800 70.764 C 230.873 70.809,230.909 70.475,230.880 70.023 C 230.797 68.732,230.710 68.576,230.688 69.676 M252.671 89.792 C 252.671 101.410,252.692 106.162,252.718 100.354 C 252.743 94.545,252.743 85.040,252.718 79.231 C 252.692 73.422,252.671 78.175,252.671 89.792 M341.339 70.460 C 341.128 71.010,340.986 71.491,341.022 71.527 C 341.058 71.564,341.261 71.143,341.471 70.592 C 341.682 70.041,341.825 69.561,341.788 69.524 C 341.752 69.488,341.550 69.909,341.339 70.460 M386.637 70.570 C 386.567 70.692,386.576 70.731,386.658 70.657 C 386.739 70.583,387.010 70.702,387.260 70.922 L 387.715 71.321 387.287 70.835 C 386.793 70.274,386.804 70.279,386.637 70.570 M121.161 72.338 L 120.106 73.442 121.211 72.387 C 121.818 71.807,122.316 71.310,122.316 71.283 C 122.316 71.152,122.141 71.311,121.161 72.338 M314.920 71.586 C 314.981 71.828,315.179 72.345,315.360 72.735 C 315.540 73.124,315.639 73.243,315.580 73.000 C 315.520 72.757,315.322 72.240,315.140 71.852 C 314.957 71.463,314.858 71.343,314.920 71.586 M340.102 73.818 C 339.891 74.369,339.748 74.849,339.785 74.886 C 339.821 74.922,340.023 74.501,340.234 73.951 C 340.445 73.400,340.588 72.919,340.551 72.883 C 340.515 72.846,340.312 73.267,340.102 73.818 M193.457 93.946 C 193.457 105.418,193.478 110.084,193.504 104.317 C 193.530 98.549,193.530 89.164,193.504 83.460 C 193.478 77.756,193.457 82.475,193.457 93.946 M390.455 73.796 C 390.785 74.136,391.095 74.414,391.143 74.414 C 391.192 74.414,390.962 74.136,390.632 73.796 C 390.302 73.456,389.993 73.177,389.944 73.177 C 389.895 73.177,390.125 73.456,390.455 73.796 M316.412 75.519 C 316.799 76.501,317.058 76.915,316.837 76.197 C 316.626 75.514,316.220 74.591,316.129 74.591 C 316.083 74.591,316.210 75.009,316.412 75.519 M391.692 74.823 C 391.692 74.854,391.951 75.112,392.267 75.398 L 392.841 75.917 392.322 75.342 C 391.838 74.807,391.692 74.687,391.692 74.823 M141.807 76.182 C 141.807 76.620,141.841 76.798,141.883 76.580 C 141.926 76.361,141.926 76.003,141.883 75.784 C 141.841 75.566,141.807 75.745,141.807 76.182 M236.585 92.532 C 236.585 101.476,236.606 105.161,236.633 100.720 C 236.659 96.280,236.659 88.962,236.633 84.459 C 236.606 79.955,236.585 83.588,236.585 92.532 M338.928 77.011 C 338.778 77.370,338.617 77.867,338.571 78.116 C 338.480 78.605,338.542 78.484,339.041 77.198 C 339.424 76.214,339.327 76.055,338.928 77.011 M371.719 76.801 C 371.476 76.940,371.357 77.053,371.454 77.053 C 371.551 77.053,371.829 76.940,372.072 76.801 C 372.316 76.662,372.435 76.548,372.338 76.548 C 372.240 76.548,371.962 76.662,371.719 76.801 M126.550 78.171 C 126.984 78.632,127.362 79.010,127.390 79.010 C 127.523 79.010,127.382 78.851,126.602 78.119 L 125.762 77.331 126.550 78.171 M395.846 78.657 C 396.226 79.046,396.576 79.364,396.625 79.364 C 396.674 79.364,396.403 79.046,396.023 78.657 C 395.643 78.268,395.293 77.950,395.244 77.950 C 395.196 77.950,395.467 78.268,395.846 78.657 M317.559 78.480 C 317.623 78.723,317.788 79.121,317.925 79.364 L 318.175 79.806 318.058 79.364 C 317.994 79.121,317.829 78.723,317.691 78.480 L 317.442 78.038 317.559 78.480 M383.557 80.637 C 383.510 81.094,383.537 81.403,383.617 81.323 C 383.697 81.243,383.736 80.869,383.703 80.492 L 383.643 79.806 383.557 80.637 M337.450 81.065 C 337.240 81.616,337.097 82.096,337.133 82.133 C 337.170 82.169,337.372 81.748,337.583 81.198 C 337.794 80.647,337.936 80.166,337.900 80.130 C 337.863 80.093,337.661 80.514,337.450 81.065 M389.448 80.910 C 390.499 80.941,392.169 80.941,393.160 80.909 C 394.151 80.878,393.292 80.852,391.251 80.853 C 389.209 80.853,388.398 80.878,389.448 80.910 M319.063 82.413 C 319.450 83.395,319.709 83.808,319.488 83.091 C 319.278 82.407,318.871 81.485,318.781 81.485 C 318.735 81.485,318.862 81.902,319.063 82.413 M336.216 84.459 C 335.694 85.890,335.761 86.077,336.298 84.687 C 336.538 84.067,336.702 83.528,336.664 83.490 C 336.626 83.452,336.424 83.888,336.216 84.459 M320.043 84.842 C 320.106 85.085,320.305 85.602,320.486 85.991 C 320.666 86.381,320.762 86.501,320.699 86.258 C 320.636 86.015,320.437 85.498,320.257 85.109 C 320.076 84.720,319.980 84.600,320.043 84.842 M335.062 87.603 C 334.906 88.062,334.808 88.469,334.846 88.506 C 334.883 88.544,335.042 88.198,335.198 87.739 C 335.355 87.280,335.452 86.874,335.415 86.836 C 335.377 86.799,335.219 87.144,335.062 87.603 M321.447 88.555 C 321.512 88.798,321.676 89.196,321.814 89.439 L 322.063 89.881 321.946 89.439 C 321.882 89.196,321.717 88.798,321.580 88.555 L 321.330 88.113 321.447 88.555 M333.736 91.226 C 333.627 91.538,333.569 91.825,333.607 91.863 C 333.645 91.901,333.765 91.676,333.873 91.363 C 333.982 91.051,334.040 90.765,334.003 90.727 C 333.965 90.689,333.845 90.914,333.736 91.226 M322.694 91.736 C 322.757 91.979,322.956 92.496,323.137 92.885 C 323.317 93.274,323.414 93.394,323.351 93.151 C 323.288 92.909,323.089 92.392,322.908 92.003 C 322.728 91.613,322.632 91.493,322.694 91.736 M332.498 94.609 C 332.218 95.357,332.102 95.802,332.185 95.802 C 332.231 95.802,332.391 95.444,332.540 95.007 C 332.812 94.207,332.776 93.865,332.498 94.609 M324.099 95.449 C 324.163 95.692,324.328 96.089,324.465 96.332 L 324.715 96.774 324.598 96.332 C 324.533 96.089,324.369 95.692,324.231 95.449 L 323.982 95.007 324.099 95.449 M330.997 98.739 C 330.841 99.198,330.743 99.604,330.780 99.642 C 330.818 99.679,330.976 99.334,331.133 98.875 C 331.289 98.416,331.387 98.009,331.349 97.972 C 331.312 97.935,331.153 98.280,330.997 98.739 M325.333 98.630 C 325.398 98.873,325.525 99.191,325.615 99.337 C 325.729 99.521,325.743 99.468,325.661 99.160 C 325.596 98.917,325.469 98.599,325.379 98.453 C 325.265 98.269,325.251 98.323,325.333 98.630 M19.915 99.632 C 19.850 99.697,19.798 99.836,19.799 99.941 C 19.801 100.053,19.861 100.040,19.944 99.909 C 20.056 99.732,22.927 99.696,33.888 99.733 C 41.479 99.758,47.654 99.719,47.609 99.646 C 47.507 99.483,20.078 99.468,19.915 99.632 M329.923 101.654 C 329.505 102.804,329.304 103.468,329.358 103.522 C 329.393 103.557,329.590 103.131,329.795 102.574 C 330.000 102.017,330.132 101.527,330.090 101.485 C 330.048 101.442,329.972 101.518,329.923 101.654 M326.489 101.723 C 326.493 101.821,326.649 102.218,326.836 102.607 C 327.023 102.996,327.126 103.115,327.066 102.872 C 326.941 102.372,326.480 101.453,326.489 101.723 M329.494 104.836 C 329.385 105.149,329.327 105.435,329.365 105.473 C 329.402 105.511,329.522 105.286,329.631 104.974 C 329.740 104.661,329.798 104.375,329.761 104.337 C 329.723 104.299,329.603 104.524,329.494 104.836 M328.581 105.463 L 328.368 106.110 328.118 105.684 L 327.869 105.259 327.984 105.700 C 328.163 106.384,328.382 106.513,328.560 106.039 C 328.853 105.257,328.969 104.817,328.881 104.817 C 328.834 104.817,328.698 105.108,328.581 105.463 M236.718 111.003 C 236.718 111.343,236.754 111.483,236.799 111.312 C 236.843 111.142,236.843 110.864,236.799 110.694 C 236.754 110.524,236.718 110.663,236.718 111.003 M269.191 113.080 L 268.582 113.743 269.244 113.134 C 269.861 112.567,269.988 112.417,269.853 112.417 C 269.824 112.417,269.526 112.715,269.191 113.080 M116.350 113.213 C 116.352 113.601,116.389 113.740,116.431 113.520 C 116.473 113.300,116.471 112.982,116.427 112.813 C 116.383 112.644,116.348 112.824,116.350 113.213 M209.507 113.566 C 209.508 114.052,209.543 114.230,209.583 113.961 C 209.624 113.693,209.623 113.295,209.581 113.078 C 209.539 112.860,209.506 113.080,209.507 113.566 M14.542 115.599 C 14.542 116.036,14.577 116.215,14.619 115.996 C 14.661 115.778,14.661 115.420,14.619 115.201 C 14.577 114.982,14.542 115.161,14.542 115.599 M258.992 117.849 C 259.357 117.887,259.954 117.887,260.318 117.849 C 260.683 117.810,260.384 117.779,259.655 117.779 C 258.926 117.779,258.628 117.810,258.992 117.849 M76.182 118.515 C 76.512 118.856,76.821 119.134,76.870 119.134 C 76.919 119.134,76.689 118.856,76.359 118.515 C 76.029 118.175,75.719 117.897,75.671 117.897 C 75.622 117.897,75.852 118.175,76.182 118.515 M319.300 118.648 L 318.780 119.222 319.355 118.703 C 319.890 118.219,320.011 118.073,319.874 118.073 C 319.844 118.073,319.585 118.332,319.300 118.648 M118.250 119.222 C 118.580 119.563,118.889 119.841,118.938 119.841 C 118.987 119.841,118.757 119.563,118.427 119.222 C 118.097 118.882,117.787 118.604,117.739 118.604 C 117.690 118.604,117.920 118.882,118.250 119.222 M318.062 120.062 L 317.543 120.636 318.118 120.117 C 318.653 119.633,318.773 119.487,318.637 119.487 C 318.606 119.487,318.348 119.746,318.062 120.062 M241.008 120.901 C 241.486 121.388,241.918 121.785,241.966 121.785 C 242.015 121.785,241.663 121.388,241.184 120.901 C 240.705 120.415,240.274 120.018,240.225 120.018 C 240.177 120.018,240.529 120.415,241.008 120.901 M0.783 122.139 L 0.795 123.288 12.638 123.290 L 24.481 123.291 12.690 123.244 L 0.900 123.197 0.836 122.093 L 0.771 120.990 0.783 122.139 M23.023 121.028 C 23.290 121.069,23.727 121.069,23.995 121.028 C 24.262 120.988,24.043 120.954,23.509 120.954 C 22.974 120.954,22.755 120.988,23.023 121.028 M43.554 121.145 C 43.503 121.279,43.491 121.776,43.528 122.250 L 43.595 123.111 43.627 122.103 L 43.659 121.094 44.852 121.033 L 46.045 120.971 44.846 120.936 C 43.967 120.911,43.623 120.966,43.554 121.145 M316.825 121.476 L 316.306 122.050 316.880 121.531 C 317.416 121.047,317.536 120.901,317.399 120.901 C 317.369 120.901,317.110 121.160,316.825 121.476 M177.496 122.094 L 177.464 123.197 163.456 123.243 L 149.448 123.290 163.461 123.333 C 175.189 123.369,177.490 123.337,177.568 123.134 C 177.619 123.001,177.631 122.464,177.595 121.941 L 177.529 120.990 177.496 122.094 M186.531 122.139 C 186.531 122.673,186.564 122.892,186.605 122.625 C 186.645 122.357,186.645 121.920,186.605 121.653 C 186.564 121.385,186.531 121.604,186.531 122.139 M283.738 121.907 C 283.909 121.952,284.187 121.952,284.357 121.907 C 284.527 121.863,284.388 121.826,284.048 121.826 C 283.707 121.826,283.568 121.863,283.738 121.907 M62.660 123.199 L 43.570 123.290 62.606 123.333 C 75.152 123.361,81.678 123.316,81.750 123.199 C 81.810 123.102,81.835 123.042,81.805 123.066 C 81.774 123.089,73.160 123.149,62.660 123.199 M101.693 123.332 C 106.050 123.358,113.129 123.358,117.424 123.332 C 121.718 123.305,118.153 123.284,109.501 123.284 C 100.848 123.284,97.335 123.305,101.693 123.332 M194.741 123.332 C 199.238 123.358,206.595 123.358,211.091 123.332 C 215.588 123.306,211.909 123.284,202.916 123.284 C 193.924 123.284,190.245 123.306,194.741 123.332 M355.811 124.348 C 355.568 124.487,355.449 124.601,355.546 124.601 C 355.643 124.601,355.921 124.487,356.164 124.348 C 356.407 124.209,356.527 124.096,356.430 124.096 C 356.332 124.096,356.054 124.209,355.811 124.348 M352.629 125.762 C 352.386 125.901,352.267 126.015,352.364 126.015 C 352.461 126.015,352.740 125.901,352.983 125.762 C 353.226 125.623,353.345 125.510,353.248 125.510 C 353.151 125.510,352.872 125.623,352.629 125.762 M310.638 128.546 L 310.119 129.121 310.694 128.601 C 311.010 128.316,311.268 128.057,311.268 128.027 C 311.268 127.890,311.122 128.011,310.638 128.546 M309.227 130.137 L 308.529 130.888 309.280 130.189 C 309.978 129.540,310.112 129.386,309.978 129.386 C 309.950 129.386,309.612 129.724,309.227 130.137 M335.484 133.363 C 335.241 133.502,335.122 133.615,335.219 133.615 C 335.316 133.615,335.594 133.502,335.837 133.363 C 336.080 133.224,336.200 133.110,336.103 133.110 C 336.005 133.110,335.727 133.224,335.484 133.363 M332.302 134.777 C 332.059 134.916,331.940 135.029,332.037 135.029 C 332.134 135.029,332.413 134.916,332.656 134.777 C 332.899 134.638,333.018 134.524,332.921 134.524 C 332.824 134.524,332.545 134.638,332.302 134.777 M329.121 136.191 C 328.878 136.330,328.758 136.444,328.856 136.444 C 328.953 136.444,329.231 136.330,329.474 136.191 C 329.717 136.052,329.837 135.938,329.739 135.938 C 329.642 135.938,329.364 136.052,329.121 136.191 M305.101 138.950 C 304.992 139.263,304.934 139.549,304.972 139.587 C 305.010 139.625,305.130 139.400,305.239 139.088 C 305.348 138.775,305.406 138.489,305.368 138.451 C 305.330 138.413,305.210 138.638,305.101 138.950 M321.167 139.726 C 320.924 139.865,320.804 139.979,320.901 139.979 C 320.999 139.979,321.277 139.865,321.520 139.726 C 321.763 139.587,321.882 139.473,321.785 139.473 C 321.688 139.473,321.410 139.587,321.167 139.726 M317.985 141.140 C 317.742 141.279,317.623 141.393,317.720 141.393 C 317.817 141.393,318.095 141.279,318.338 141.140 C 318.582 141.001,318.701 140.887,318.604 140.887 C 318.506 140.887,318.228 141.001,317.985 141.140 M314.803 142.554 C 314.560 142.693,314.441 142.807,314.538 142.807 C 314.635 142.807,314.914 142.693,315.157 142.554 C 315.400 142.415,315.519 142.302,315.422 142.302 C 315.325 142.302,315.046 142.415,314.803 142.554 M306.496 146.266 C 306.253 146.405,306.133 146.519,306.231 146.519 C 306.328 146.519,306.606 146.405,306.849 146.266 C 307.092 146.127,307.212 146.013,307.114 146.013 C 307.017 146.013,306.739 146.127,306.496 146.266 " stroke="none" fill="#82a8d0" fill-rule="evenodd"></path></g></svg>